<svg width="428" height="262" viewBox="0 0 428 262" fill="none" xmlns="http://www.w3.org/2000/svg">
<g style="mix-blend-mode:multiply">
<path d="M252.834 0H328C383.228 0 428 44.7715 428 100V175.434H252.834V0Z" fill="#E1F4FA"/>
</g>
<rect y="32.1455" width="361.532" height="229.855" rx="35" fill="#173361"/>
<mask id="mask0" mask-type="alpha" maskUnits="userSpaceOnUse" x="0" y="32" width="362" height="230">
<rect y="32.1455" width="361.532" height="229.855" rx="35" fill="black"/>
</mask>
<g mask="url(#mask0)">
<path d="M76.6675 -3.10889L247.391 -154.382L410.55 30.3178L319.291 111.18C275.404 150.067 208.35 145.96 169.523 102.005L76.6675 -3.10889Z" fill="#0099CC"/>
<path d="M285.247 76.005L371.406 -10.2866L545.518 164.094L384.336 325.523L285.247 226.284C243.812 184.785 243.812 117.503 285.247 76.005Z" fill="#7CBE75"/>
<path d="M323.389 111.312L413.898 31.1147C414.105 30.9312 414.125 30.6144 413.941 30.407L370.507 -18.7607C370.498 -18.7528 370.486 -18.7497 370.476 -18.7407L285.026 66.8421C265.363 86.5338 255.083 112.06 254.17 137.858C278.805 137.691 303.489 128.945 323.389 111.312Z" fill="#C2FFE9"/>
<path d="M40.9923 172.647V170.909H52.5203V172.647H40.9923ZM55.4576 172.647V170.909H66.9856V172.647H55.4576ZM69.9228 172.647V170.909H81.4508V172.647H69.9228ZM90.5603 172.647V170.909H102.088V172.647H90.5603ZM105.026 172.647V170.909H116.554V172.647H105.026ZM119.491 172.647V170.909H131.019V172.647H119.491ZM140.128 172.647V170.909H151.656V172.647H140.128ZM154.594 172.647V170.909H166.122V172.647H154.594ZM169.059 172.647V170.909H180.587V172.647H169.059ZM183.524 172.647V170.909H195.052V172.647H183.524ZM204.161 172.647V170.909H215.689V172.647H204.161ZM218.627 172.647V170.909H230.155V172.647H218.627ZM233.092 172.647V170.909H244.62V172.647H233.092ZM247.557 172.647V170.909H259.085V172.647H247.557Z" fill="white"/>
<path d="M47.3283 220.505C45.9643 220.505 44.7837 220.175 43.7863 219.515C42.8037 218.84 42.0483 217.909 41.5203 216.721C40.9923 215.518 40.7283 214.125 40.7283 212.541C40.7283 210.957 40.9923 209.571 41.5203 208.383C42.0483 207.18 42.8037 206.249 43.7863 205.589C44.7837 204.914 45.9643 204.577 47.3283 204.577C48.6923 204.577 49.8657 204.914 50.8483 205.589C51.831 206.249 52.5863 207.18 53.1143 208.383C53.6423 209.571 53.9063 210.957 53.9063 212.541C53.9063 214.125 53.6423 215.518 53.1143 216.721C52.5863 217.909 51.831 218.84 50.8483 219.515C49.8657 220.175 48.6923 220.505 47.3283 220.505ZM47.3283 218.877C48.223 218.877 49.0223 218.627 49.7263 218.129C50.445 217.615 51.0023 216.889 51.3983 215.951C51.809 214.997 52.0143 213.861 52.0143 212.541C52.0143 211.221 51.809 210.091 51.3983 209.153C51.0023 208.214 50.445 207.495 49.7263 206.997C49.0223 206.483 48.223 206.227 47.3283 206.227C46.419 206.227 45.6123 206.483 44.9083 206.997C44.2043 207.495 43.647 208.214 43.2363 209.153C42.8257 210.091 42.6203 211.221 42.6203 212.541C42.6203 213.861 42.8257 214.997 43.2363 215.951C43.647 216.889 44.2043 217.615 44.9083 218.129C45.6123 218.627 46.419 218.877 47.3283 218.877ZM62.9322 220.505C61.5682 220.505 60.3876 220.175 59.3902 219.515C58.4076 218.84 57.6522 217.909 57.1242 216.721C56.5962 215.518 56.3322 214.125 56.3322 212.541C56.3322 210.957 56.5962 209.571 57.1242 208.383C57.6522 207.18 58.4076 206.249 59.3902 205.589C60.3876 204.914 61.5682 204.577 62.9322 204.577C64.2962 204.577 65.4696 204.914 66.4522 205.589C67.4349 206.249 68.1902 207.18 68.7182 208.383C69.2462 209.571 69.5102 210.957 69.5102 212.541C69.5102 214.125 69.2462 215.518 68.7182 216.721C68.1902 217.909 67.4349 218.84 66.4522 219.515C65.4696 220.175 64.2962 220.505 62.9322 220.505ZM62.9322 218.877C63.8269 218.877 64.6262 218.627 65.3302 218.129C66.0489 217.615 66.6062 216.889 67.0022 215.951C67.4129 214.997 67.6182 213.861 67.6182 212.541C67.6182 211.221 67.4129 210.091 67.0022 209.153C66.6062 208.214 66.0489 207.495 65.3302 206.997C64.6262 206.483 63.8269 206.227 62.9322 206.227C62.0229 206.227 61.2162 206.483 60.5122 206.997C59.8082 207.495 59.2509 208.214 58.8402 209.153C58.4296 210.091 58.2242 211.221 58.2242 212.541C58.2242 213.861 58.4296 214.997 58.8402 215.951C59.2509 216.889 59.8082 217.615 60.5122 218.129C61.2162 218.627 62.0229 218.877 62.9322 218.877ZM77.6904 222.331L83.2124 203.433H85.0384L79.5164 222.331H77.6904ZM99.8244 220.505C98.4604 220.505 97.2798 220.175 96.2824 219.515C95.2998 218.84 94.5444 217.909 94.0164 216.721C93.4884 215.518 93.2244 214.125 93.2244 212.541C93.2244 210.957 93.4884 209.571 94.0164 208.383C94.5444 207.18 95.2998 206.249 96.2824 205.589C97.2798 204.914 98.4604 204.577 99.8244 204.577C101.188 204.577 102.362 204.914 103.344 205.589C104.327 206.249 105.082 207.18 105.61 208.383C106.138 209.571 106.402 210.957 106.402 212.541C106.402 214.125 106.138 215.518 105.61 216.721C105.082 217.909 104.327 218.84 103.344 219.515C102.362 220.175 101.188 220.505 99.8244 220.505ZM99.8244 218.877C100.719 218.877 101.518 218.627 102.222 218.129C102.941 217.615 103.498 216.889 103.894 215.951C104.305 214.997 104.51 213.861 104.51 212.541C104.51 211.221 104.305 210.091 103.894 209.153C103.498 208.214 102.941 207.495 102.222 206.997C101.518 206.483 100.719 206.227 99.8244 206.227C98.9151 206.227 98.1084 206.483 97.4044 206.997C96.7004 207.495 96.1431 208.214 95.7324 209.153C95.3218 210.091 95.1164 211.221 95.1164 212.541C95.1164 213.861 95.3218 214.997 95.7324 215.951C96.1431 216.889 96.7004 217.615 97.4044 218.129C98.1084 218.627 98.9151 218.877 99.8244 218.877ZM115.428 220.505C114.064 220.505 112.884 220.175 111.886 219.515C110.904 218.84 110.148 217.909 109.62 216.721C109.092 215.518 108.828 214.125 108.828 212.541C108.828 210.957 109.092 209.571 109.62 208.383C110.148 207.18 110.904 206.249 111.886 205.589C112.884 204.914 114.064 204.577 115.428 204.577C116.792 204.577 117.966 204.914 118.948 205.589C119.931 206.249 120.686 207.18 121.214 208.383C121.742 209.571 122.006 210.957 122.006 212.541C122.006 214.125 121.742 215.518 121.214 216.721C120.686 217.909 119.931 218.84 118.948 219.515C117.966 220.175 116.792 220.505 115.428 220.505ZM115.428 218.877C116.323 218.877 117.122 218.627 117.826 218.129C118.545 217.615 119.102 216.889 119.498 215.951C119.909 214.997 120.114 213.861 120.114 212.541C120.114 211.221 119.909 210.091 119.498 209.153C119.102 208.214 118.545 207.495 117.826 206.997C117.122 206.483 116.323 206.227 115.428 206.227C114.519 206.227 113.712 206.483 113.008 206.997C112.304 207.495 111.747 208.214 111.336 209.153C110.926 210.091 110.72 211.221 110.72 212.541C110.72 213.861 110.926 214.997 111.336 215.951C111.747 216.889 112.304 217.615 113.008 218.129C113.712 218.627 114.519 218.877 115.428 218.877Z" fill="white"/>
<path d="M40.9523 137.047V125.147H42.3803L48.7213 134.684V125.147H50.1493V137.047H48.7213L42.3803 127.51V137.047H40.9523ZM54.985 137.251C54.2824 137.251 53.6987 137.132 53.234 136.894C52.7694 136.656 52.4237 136.339 52.197 135.942C51.9704 135.545 51.857 135.115 51.857 134.65C51.857 133.789 52.1857 133.126 52.843 132.661C53.5004 132.196 54.3957 131.964 55.529 131.964H57.807V131.862C57.807 131.125 57.6144 130.57 57.229 130.196C56.8437 129.811 56.328 129.618 55.682 129.618C55.1267 129.618 54.645 129.76 54.237 130.043C53.8404 130.315 53.591 130.717 53.489 131.25H52.027C52.0837 130.638 52.2877 130.122 52.639 129.703C53.0017 129.284 53.4494 128.966 53.982 128.751C54.5147 128.524 55.0814 128.411 55.682 128.411C56.8607 128.411 57.7447 128.728 58.334 129.363C58.9347 129.986 59.235 130.819 59.235 131.862V137.047H57.96L57.875 135.534C57.637 136.01 57.2857 136.418 56.821 136.758C56.3677 137.087 55.7557 137.251 54.985 137.251ZM55.206 136.044C55.75 136.044 56.2147 135.902 56.6 135.619C56.9967 135.336 57.297 134.967 57.501 134.514C57.705 134.061 57.807 133.585 57.807 133.086V133.069H55.648C54.8094 133.069 54.2144 133.216 53.863 133.511C53.523 133.794 53.353 134.151 53.353 134.582C53.353 135.024 53.5117 135.381 53.829 135.653C54.1577 135.914 54.6167 136.044 55.206 136.044ZM60.9693 137.047V128.615H62.2613L62.3633 129.839C62.6353 129.386 62.998 129.034 63.4513 128.785C63.9046 128.536 64.4146 128.411 64.9813 128.411C65.65 128.411 66.2223 128.547 66.6983 128.819C67.1856 129.091 67.5596 129.505 67.8203 130.06C68.115 129.55 68.5173 129.148 69.0273 128.853C69.5486 128.558 70.1096 128.411 70.7103 128.411C71.719 128.411 72.5236 128.717 73.1243 129.329C73.725 129.93 74.0253 130.859 74.0253 132.117V137.047H72.6143V132.27C72.6143 131.397 72.4386 130.74 72.0873 130.298C71.736 129.856 71.2316 129.635 70.5743 129.635C69.8943 129.635 69.3276 129.901 68.8743 130.434C68.4323 130.955 68.2113 131.703 68.2113 132.678V137.047H66.7833V132.27C66.7833 131.397 66.6076 130.74 66.2563 130.298C65.905 129.856 65.4006 129.635 64.7433 129.635C64.0746 129.635 63.5136 129.901 63.0603 130.434C62.6183 130.955 62.3973 131.703 62.3973 132.678V137.047H60.9693ZM79.5593 137.251C78.7547 137.251 78.0407 137.07 77.4173 136.707C76.794 136.333 76.301 135.817 75.9383 135.16C75.587 134.503 75.4113 133.726 75.4113 132.831C75.4113 131.947 75.587 131.176 75.9383 130.519C76.2897 129.85 76.777 129.335 77.4003 128.972C78.035 128.598 78.766 128.411 79.5933 128.411C80.4093 128.411 81.112 128.598 81.7013 128.972C82.302 129.335 82.761 129.816 83.0783 130.417C83.3957 131.018 83.5543 131.664 83.5543 132.355C83.5543 132.48 83.5487 132.604 83.5373 132.729C83.5373 132.854 83.5373 132.995 83.5373 133.154H76.8223C76.8563 133.8 77.0037 134.338 77.2643 134.769C77.5363 135.188 77.8707 135.506 78.2673 135.721C78.6753 135.936 79.106 136.044 79.5593 136.044C80.1487 136.044 80.6417 135.908 81.0383 135.636C81.435 135.364 81.724 134.996 81.9053 134.531H83.3163C83.0897 135.313 82.6533 135.965 82.0073 136.486C81.3727 136.996 80.5567 137.251 79.5593 137.251ZM79.5593 129.618C78.8793 129.618 78.273 129.828 77.7403 130.247C77.219 130.655 76.9187 131.256 76.8393 132.049H82.1433C82.1093 131.29 81.8487 130.695 81.3613 130.264C80.874 129.833 80.2733 129.618 79.5593 129.618Z" fill="white"/>
</g>
</svg>
