<svg width="48" height="48" viewBox="0 0 48 48" fill="none" xmlns="http://www.w3.org/2000/svg">
<path fill-rule="evenodd" clip-rule="evenodd" d="M46 24C46 36.1503 36.1503 46 24 46C11.8497 46 2 36.1503 2 24C2 11.8497 11.8497 2 24 2C36.1503 2 46 11.8497 46 24ZM48 24C48 37.2548 37.2548 48 24 48C10.7452 48 0 37.2548 0 24C0 10.7452 10.7452 0 24 0C37.2548 0 48 10.7452 48 24ZM19 21.3333H21.5714V19.0773C21.5714 17.056 22.5974 16 24.9091 16H28V19.3333H26.146C25.552 19.3333 25.4286 19.5853 25.4286 20.2227V21.3333H28L27.7686 24H25.4286V32H21.5714V24H19V21.3333Z" fill="black"/>
</svg>
