<svg width="48" height="48" viewBox="0 0 48 48" fill="none" xmlns="http://www.w3.org/2000/svg">
<path fill-rule="evenodd" clip-rule="evenodd" d="M46 24C46 36.1503 36.1503 46 24 46C11.8497 46 2 36.1503 2 24C2 11.8497 11.8497 2 24 2C36.1503 2 46 11.8497 46 24ZM48 24C48 37.2548 37.2548 48 24 48C10.7452 48 0 37.2548 0 24C0 10.7452 10.7452 0 24 0C37.2548 0 48 10.7452 48 24ZM18.409 15.6125C19.4461 15.6259 20.1682 16.3228 20.1629 17.3049C20.1575 18.2858 19.3731 18.9789 18.2998 18.9512C17.2678 18.9245 16.5447 18.2039 16.572 17.2291C16.5986 16.2742 17.366 15.599 18.409 15.6125ZM28.3191 29.9015H31.5291C31.5291 29.7525 31.5295 29.6079 31.5299 29.4663L31.5299 29.4658V29.4658V29.4654C31.5308 29.1664 31.5316 28.881 31.5283 28.5957C31.5222 28.0858 31.5226 27.5754 31.523 27.065V27.0646C31.5239 25.8534 31.5248 24.6423 31.4395 23.4374C31.332 21.9262 30.6211 20.6923 29.0647 20.2401C27.5325 19.795 26.1311 20.0283 25.0972 21.4025C25.088 21.4145 25.0626 21.4144 25.0191 21.4141H25.019C24.992 21.4139 24.9578 21.4137 24.9163 21.4164V20.3123H21.7769V29.8915H24.9373V29.0208C24.9373 28.5595 24.9358 28.0981 24.9342 27.6367L24.9342 27.6351V27.635C24.9306 26.5784 24.927 25.5218 24.9431 24.4656C24.9624 23.2143 25.9023 22.4003 27.0317 22.61C27.8115 22.755 28.283 23.3811 28.3032 24.4323C28.3249 25.5588 28.3226 26.6857 28.3202 27.8127V27.8127V27.8128C28.3193 28.2852 28.3183 28.7577 28.3191 29.2301C28.3193 29.3709 28.3192 29.5117 28.3191 29.6597V29.6611V29.6626L28.3191 29.9015ZM16.7949 29.8977H19.9084V20.3184H16.7949V29.8977Z" fill="black"/>
</svg>
