<svg width="48" height="48" viewBox="0 0 48 48" fill="none" xmlns="http://www.w3.org/2000/svg">
<path fill-rule="evenodd" clip-rule="evenodd" d="M46 24C46 36.1503 36.1503 46 24 46C11.8497 46 2 36.1503 2 24C2 11.8497 11.8497 2 24 2C36.1503 2 46 11.8497 46 24ZM48 24C48 37.2548 37.2548 48 24 48C10.7452 48 0 37.2548 0 24C0 10.7452 10.7452 0 24 0C37.2548 0 48 10.7452 48 24ZM32.5825 21.2884C32.5825 18.3753 30.2209 16.0137 27.3078 16.0137H20.2747C17.3616 16.0137 15 18.3753 15 21.2884V28.3214C15 31.2346 17.3616 33.5962 20.2747 33.5962H27.3078C30.2209 33.5962 32.5825 31.2346 32.5825 28.3214V21.2884ZM19.3956 24.8049C19.3956 22.3807 21.3671 20.4093 23.7913 20.4093C26.2154 20.4093 28.1869 22.3807 28.1869 24.8049C28.1869 27.2291 26.2154 29.2005 23.7913 29.2005C21.3671 29.2005 19.3956 27.2291 19.3956 24.8049ZM28.1869 19.5302C28.1869 19.0906 28.6264 18.651 29.066 18.651C29.5056 18.651 29.9451 19.0906 29.9451 19.5302C29.9451 19.9697 29.5056 20.4093 29.066 20.4093C28.6264 20.4093 28.1869 19.9697 28.1869 19.5302ZM21.1539 24.8049C21.1539 23.3483 22.3347 22.1675 23.7913 22.1675C25.2478 22.1675 26.4286 23.3483 26.4286 24.8049C26.4286 26.2615 25.2478 27.4423 23.7913 27.4423C22.3347 27.4423 21.1539 26.2615 21.1539 24.8049Z" fill="black"/>
</svg>
