<svg width="48" height="48" viewBox="0 0 48 48" fill="none" xmlns="http://www.w3.org/2000/svg">
<path fill-rule="evenodd" clip-rule="evenodd" d="M46 24C46 36.1503 36.1503 46 24 46C11.8497 46 2 36.1503 2 24C2 11.8497 11.8497 2 24 2C36.1503 2 46 11.8497 46 24ZM48 24C48 37.2548 37.2548 48 24 48C10.7452 48 0 37.2548 0 24C0 10.7452 10.7452 0 24 0C37.2548 0 48 10.7452 48 24ZM30.1147 20.0567C30.7787 19.9767 31.412 19.8008 32 19.5395C31.56 20.198 31.004 20.7765 30.3613 21.2377C30.5693 25.8536 27.1267 31 21.0307 31C19.1773 31 17.4533 30.4575 16 29.5258C17.7427 29.7311 19.48 29.2472 20.8627 28.1649C19.428 28.1382 18.2133 27.1905 17.796 25.8869C18.3107 25.9855 18.8173 25.9562 19.2787 25.8309C17.7 25.5137 16.6093 24.0915 16.6453 22.5719C17.088 22.8172 17.5933 22.9651 18.1307 22.9825C16.6693 22.0054 16.2547 20.0754 17.1147 18.6011C18.7333 20.5859 21.1533 21.8921 23.88 22.0294C23.4013 19.9767 24.9587 18 27.0787 18C28.0213 18 28.876 18.3985 29.4733 19.037C30.2213 18.8904 30.924 18.6171 31.5587 18.2413C31.312 19.0077 30.7933 19.6502 30.1147 20.0567Z" fill="black"/>
</svg>
