<svg width="22" height="22" viewBox="0 0 22 22" fill="none" xmlns="http://www.w3.org/2000/svg">
<path fill-rule="evenodd" clip-rule="evenodd" d="M11 2.46669C6.28717 2.46669 2.46667 6.28719 2.46667 11C2.46667 15.7129 6.28717 19.5334 11 19.5334C15.7128 19.5334 19.5333 15.7129 19.5333 11C19.5333 6.28719 15.7128 2.46669 11 2.46669ZM11 0.333354C5.10896 0.333354 0.333336 5.10898 0.333337 11C0.333337 16.8911 5.10897 21.6667 11 21.6667C16.891 21.6667 21.6667 16.8911 21.6667 11C21.6667 5.10898 16.891 0.333353 11 0.333354ZM10.9417 16.2992C10.3526 16.2992 9.87501 15.8217 9.87501 15.2326L9.875 12.0102L6.65508 12.0102C6.06598 12.0102 5.58842 11.5326 5.58842 10.9435C5.58842 10.3544 6.06598 9.87685 6.65508 9.87685L9.875 9.87685L9.875 6.65432C9.875 6.06522 10.3526 5.58766 10.9417 5.58766C11.5308 5.58765 12.0083 6.06522 12.0083 6.65432L12.0083 9.87685L15.2333 9.87685C15.8224 9.87685 16.3 10.3544 16.3 10.9435C16.3 11.5326 15.8224 12.0102 15.2333 12.0102L12.0083 12.0102L12.0083 15.2326C12.0083 15.8217 11.5308 16.2992 10.9417 16.2992Z" fill="#09A8DD"/>
</svg>
