<svg width="17" height="16" viewBox="0 0 17 16" fill="none" xmlns="http://www.w3.org/2000/svg">
<path fill-rule="evenodd" clip-rule="evenodd" d="M6 16C5.724 16 5.5 15.7768 5.5 15.5C5.5 15.2232 5.724 15 6 15H14.5001C14.7761 15 15.0001 15.2232 15.0001 15.5C15.0001 15.7768 14.7761 16 14.5001 16H6ZM0.646312 15.8536C0.503112 15.7104 0.460711 15.4952 0.538312 15.3088L2.03992 11.6872C2.03992 11.6872 2.03992 11.6872 2.03992 11.6864L2.04152 11.6832C2.05432 11.6536 2.07672 11.632 2.09432 11.6056C2.11272 11.5776 2.12552 11.5464 2.15032 11.5216L13.5256 0.1464C13.6192 0.0528 13.7464 0 13.8792 0C14.0112 0 14.1384 0.0528 14.2328 0.1464L16.3536 2.2688C16.5488 2.4632 16.5488 2.78 16.3536 2.9752L4.98154 14.3464C4.98154 14.3472 4.98074 14.3472 4.98074 14.3472L4.97834 14.3496C4.95674 14.3712 4.92874 14.3824 4.90394 14.3992C4.87514 14.4192 4.85034 14.444 4.81674 14.4576L4.81354 14.4592L1.19112 15.9624C1.12951 15.9872 1.06391 16 0.999914 16C0.869514 16 0.742313 15.9496 0.646312 15.8536Z" fill="#09A8DD"/>
</svg>
