<svg width="68" height="68" viewBox="0 0 68 68" fill="none" xmlns="http://www.w3.org/2000/svg">
<ellipse cx="34" cy="34" rx="26.8222" ry="26.8222" fill="#D1E3E9"/>
<mask id="mask0" mask-type="alpha" maskUnits="userSpaceOnUse" x="7" y="7" width="54" height="54">
<ellipse cx="34" cy="34" rx="26.8222" ry="26.8222" fill="#D1E3E9"/>
</mask>
<g mask="url(#mask0)">
<path d="M22.9631 40.505C22.9625 40.5044 22.9967 40.4683 22.9967 40.4683L22.9631 40.505Z" fill="black"/>
<path d="M24.2432 40.4334C24.1465 40.5546 23.5347 40.8924 22.7702 40.9246C22.0199 40.9562 21.6466 40.233 21.6331 40.2052C21.5667 39.9345 21.6376 39.7379 21.713 39.5664C21.8581 39.2396 22.1526 39.2286 22.4537 39.1216C22.7135 39.0288 23.6314 38.5286 24.1819 38.3378C24.9651 39.0784 24.3398 40.3135 24.2432 40.4334Z" fill="#F7C58D"/>
<path d="M25.6783 38.2733V41.1928C25.6783 41.1928 25.2 41.4571 24.7765 41.5151C24.7765 41.5151 24.1635 41.635 23.5021 41.5873C23.5021 41.5873 24.5838 41.1734 24.9364 40.4231C25.1033 40.0666 25.4843 38.3075 25.2232 38.2417C25.4804 38.252 25.6783 38.2733 25.6783 38.2733Z" fill="#D69365"/>
<path d="M24.9358 40.4231C24.5832 41.1741 23.5015 41.5873 23.5015 41.5873C23.009 41.5525 22.4907 41.4242 22.1787 41.0858C21.8435 40.7203 21.6882 40.436 21.6321 40.2059C21.645 40.2336 22.0189 40.9569 22.7692 40.9253C23.5337 40.8937 24.1455 40.5552 24.2428 40.4341C24.3389 40.3135 24.9648 39.0791 24.1816 38.3384C24.2692 38.3081 24.3466 38.2855 24.4123 38.2739C24.6483 38.2314 24.9648 38.2314 25.222 38.2423C25.4837 38.3074 25.1034 40.0666 24.9358 40.4231Z" fill="#E8AF80"/>
<path d="M24.5407 35.934C24.5285 36.1499 24.4711 36.4987 24.1507 36.8796C23.7343 37.3734 21.7586 37.4031 21.3473 36.8049C21.3453 36.801 21.3441 36.7965 21.3421 36.7926C21.0843 36.1596 21.2422 35.4402 21.4427 35.2146C21.6432 34.989 21.7824 34.9245 22.0718 34.8923C22.3619 34.86 22.6623 34.7956 24.0038 34.1406C24.0553 34.1155 24.1069 34.0929 24.1591 34.0736C24.4428 34.2689 24.5865 35.1127 24.5407 35.934Z" fill="#F7C58D"/>
<path d="M26.924 34.6673L25.6786 37.641C25.6786 37.641 25.1094 37.5217 24.8199 37.5114C24.633 37.5043 23.94 37.5288 23.3831 37.532C23.5268 37.5243 24.4641 37.4514 24.8554 36.8274C25.2802 36.1512 25.1648 35.2681 25.1648 35.2681L25.3111 33.9795C26.1981 34.1239 26.924 34.6673 26.924 34.6673Z" fill="#D69365"/>
<path d="M25.1655 35.268C25.1655 35.268 25.2802 36.1512 24.8561 36.8274C24.4648 37.4514 23.5275 37.5242 23.3837 37.5319H23.3767C23.0737 37.5345 22.8126 37.53 22.6953 37.5113C22.3646 37.4584 21.611 37.4262 21.348 36.8048C21.7586 37.403 23.7344 37.3734 24.1515 36.8789C24.4719 36.4986 24.5292 36.1492 24.5415 35.9333C24.5866 35.112 24.4429 34.2682 24.1599 34.0742C24.5447 33.9272 24.9431 33.9182 25.3125 33.9794L25.1655 35.268Z" fill="#E8AF80"/>
<path d="M24.0985 30.7268C24.0972 30.7261 24.0965 30.7248 24.0953 30.7242C23.9328 30.5849 23.7839 30.4225 23.6717 30.2349C23.1889 29.4298 23.8168 28.8019 23.9618 28.673C24.0392 28.604 24.1449 28.4609 24.4092 28.3578C25.2601 28.216 25.001 31.1503 24.0985 30.7268Z" fill="#F7C58D"/>
<path d="M25.2973 31.3778C25.2973 31.3778 24.6288 31.1799 24.0983 30.7267C24.6752 31.1573 24.9189 28.1663 24.409 28.3584C24.6378 28.2688 24.9859 28.2095 25.539 28.2546C26.7303 28.3507 25.2973 31.3778 25.2973 31.3778Z" fill="#E8AF80"/>
<path d="M25.2225 38.2501C25.2134 38.2482 25.2057 38.2482 25.1999 38.2488L25.1986 38.2314C25.2063 38.2308 25.2154 38.2308 25.2244 38.2334L25.2225 38.2405V38.2501Z" fill="black"/>
<path d="M23.3643 37.5417V37.5243C23.3643 37.5243 23.3681 37.5243 23.3752 37.5237H23.3829V37.541H23.3758C23.3688 37.5417 23.3649 37.5417 23.3643 37.5417Z" fill="black"/>
<path d="M39.1382 16.231V41.6446C39.1382 42.783 38.2164 43.7049 37.078 43.7049H27.1631C26.0066 43.7049 25.0693 42.7682 25.0693 41.6124V16.1711C25.0693 15.0791 25.9557 14.1934 27.047 14.1934H37.1006C38.2261 14.1934 39.1382 15.1049 39.1382 16.231Z" fill="#222323"/>
<path d="M39.1382 16.2304C39.1382 15.1049 38.2261 14.1927 37.1006 14.1927H27.047C25.955 14.1927 25.0693 15.0785 25.0693 16.1705V41.6118C25.0693 42.7676 26.0066 43.7049 27.1631 43.7049H37.078C38.2158 43.7049 39.1382 42.7824 39.1382 41.6447V16.2304ZM39.0409 41.5544C39.0409 42.6941 38.1172 43.6179 36.9775 43.6179H27.2275C26.0878 43.6179 25.1641 42.6941 25.1641 41.5544V16.2136C25.1641 15.1636 26.015 14.3126 27.0651 14.3126H37.1109C38.1765 14.3126 39.0403 15.1764 39.0403 16.242V41.5544H39.0409Z" fill="#BDBDBD"/>
<path d="M39.0228 16.242C39.0228 15.1764 38.159 14.3126 37.0934 14.3126H27.047C25.9969 14.3126 25.146 15.1635 25.146 16.2136V41.5544C25.146 42.6941 26.0697 43.6178 27.2094 43.6178H36.9594C38.0991 43.6178 39.0228 42.6941 39.0228 41.5544V16.242ZM38.4807 40.3064H25.681V17.6073H38.4807V40.3064Z" fill="#414249"/>
<path d="M38.5085 40.3064H25.6812V17.5957H38.5085V40.3064ZM25.7024 40.2852H38.4872V17.617H25.7024V40.2852Z" fill="black"/>
<path d="M29.9765 16.0265C29.9171 16.0967 29.825 16.1296 29.7347 16.1128C29.6445 16.0967 29.5697 16.0329 29.5388 15.9465C29.5078 15.8601 29.5252 15.7635 29.5845 15.6938C29.6438 15.6236 29.736 15.5907 29.8263 15.6075C29.9165 15.6242 29.9913 15.6874 30.0222 15.7738C30.0538 15.8601 30.0358 15.9562 29.9765 16.0265Z" fill="#616161"/>
<path d="M29.7803 16.1266C29.7648 16.1266 29.7487 16.1253 29.7326 16.122C29.6391 16.1053 29.5611 16.0389 29.5289 15.9493C29.4967 15.8597 29.5153 15.7591 29.5766 15.6869C29.6378 15.6147 29.7345 15.5799 29.828 15.5973C29.9215 15.6141 29.9995 15.6805 30.0317 15.7701C30.0639 15.8597 30.0452 15.9602 29.984 16.0324C29.9331 16.0924 29.8576 16.1266 29.7803 16.1266ZM29.7809 15.6121C29.7087 15.6121 29.6391 15.6437 29.5921 15.6992C29.5353 15.7662 29.5179 15.8597 29.5476 15.9422C29.5772 16.0253 29.6494 16.0866 29.7364 16.1021C29.8228 16.1175 29.9124 16.0859 29.9692 16.0189C30.0259 15.9519 30.0433 15.8584 30.0136 15.7759C29.984 15.6927 29.9118 15.6315 29.8248 15.616C29.8099 15.6134 29.7951 15.6121 29.7809 15.6121Z" fill="#616161"/>
<path d="M33.3063 15.8759C33.3063 15.9455 33.2496 16.0022 33.18 16.0022H31.0392C30.9696 16.0022 30.9128 15.9455 30.9128 15.8759C30.9128 15.8062 30.9696 15.7495 31.0392 15.7495H33.18C33.2502 15.7495 33.3063 15.8062 33.3063 15.8759Z" fill="#616161"/>
<path d="M32.6675 41.0406H31.455C30.9445 41.0406 30.5312 41.4539 30.5312 41.9638V42.0714C30.5312 42.5813 30.9445 42.9945 31.455 42.9945H32.6824C33.1929 42.9945 33.6061 42.5813 33.6061 42.0714V41.9792C33.6067 41.4609 33.1858 41.0406 32.6675 41.0406ZM32.6031 42.8811C33.0595 42.8811 33.4301 42.511 33.4301 42.054V41.9882C33.4301 41.5319 33.0601 41.1618 32.6031 41.1618H32.6624C33.1188 41.1618 33.4894 41.5312 33.4894 41.9882V42.054C33.4894 42.5104 33.1194 42.8811 32.6624 42.8811H32.6031Z" fill="#37363A"/>
<path d="M39.2678 21.2836C39.2678 21.3551 39.2097 21.4132 39.1382 21.4132V19.2144C39.2097 19.2144 39.2678 19.2724 39.2678 19.3439V21.2836Z" fill="#A3A3A3"/>
<path d="M33.4303 41.9889V42.0546C33.4303 42.511 33.0603 42.8817 32.6032 42.8817H31.4745C31.0181 42.8817 30.6481 42.5117 30.6481 42.0546V41.9889C30.6481 41.5325 31.0174 41.1625 31.4745 41.1625H32.6032C33.0603 41.1625 33.4303 41.5318 33.4303 41.9889Z" fill="#616161"/>
<path d="M33.4895 41.9889V42.0546C33.4895 42.511 33.1195 42.8817 32.6625 42.8817H32.6031C33.0595 42.8817 33.4302 42.5117 33.4302 42.0546V41.9889C33.4302 41.5325 33.0602 41.1625 32.6031 41.1625H32.6625C33.1195 41.1625 33.4895 41.5318 33.4895 41.9889Z" fill="#84848C"/>
<path d="M38.4799 17.5957H25.7021V40.2845H38.4799V17.5957Z" fill="#F7F9F4"/>
<path d="M32.1224 24.4523H32.1527C33.1132 24.9151 33.5844 25.0666 34.0389 25.1833C34.4882 25.298 35.2153 25.3979 35.2211 25.3979C35.225 25.3979 35.5499 25.4572 35.5538 25.4605C35.546 25.8273 35.5441 26.0239 35.5125 26.6079C35.4577 27.6077 35.4525 27.7901 35.1638 28.7764C35.1599 28.7893 35.0696 29.06 34.9259 29.3869C34.7757 29.7272 34.6842 29.8581 34.5185 30.125C34.3747 30.357 34.0666 30.7728 33.8822 30.9662C33.7198 31.137 33.5013 31.3485 33.4445 31.391C33.411 31.4161 32.9701 31.7874 32.798 31.9093C32.7213 31.9634 32.5292 32.0653 32.446 32.1188C32.3977 32.1497 32.397 32.1517 32.3422 32.1768C32.2829 32.2045 32.1875 32.2471 32.116 32.2716C32.0541 32.2574 32.067 32.2625 31.92 32.1923C31.8214 32.1446 31.8549 32.1594 31.7737 32.1097C31.4649 31.9202 31.5835 32.0453 30.8364 31.4284C30.3529 31.0287 30.019 30.591 29.7122 30.1108C29.4472 29.6956 29.3995 29.5977 29.219 29.1619C29.016 28.6707 28.831 27.8681 28.8058 27.6722C28.7652 27.3576 28.6879 26.0832 28.6879 25.465C28.7059 25.4559 28.7085 25.4514 28.7846 25.4392C29.8862 25.2626 30.496 25.2361 32.0928 24.4529H32.1224V24.4523Z" fill="#FFFF00"/>
<path d="M32.1147 32.277L32.1025 32.2744C32.0541 32.2635 32.0541 32.2635 31.9355 32.2068L31.9155 32.1971C31.8459 32.1636 31.8421 32.161 31.8176 32.1449C31.8072 32.1378 31.7931 32.1288 31.7686 32.1139C31.6983 32.0707 31.6512 32.0443 31.6093 32.0211C31.4675 31.9418 31.4089 31.9096 30.8306 31.4319C30.302 30.9949 29.9649 30.5204 29.7051 30.113C29.4383 29.6947 29.3906 29.5954 29.212 29.1635C29.0154 28.6871 28.8259 27.8839 28.7981 27.6725C28.7569 27.3547 28.6802 26.0732 28.6802 25.4646V25.4614L28.6879 25.4576C28.7021 25.4498 28.7118 25.4453 28.7814 25.4337C28.9039 25.4144 29.0199 25.3963 29.1321 25.3789C30.0249 25.2422 30.6695 25.1436 32.0883 24.4474C32.0909 24.4468 32.1528 24.4474 32.1528 24.4474C33.0662 24.8877 33.5516 25.0534 34.0376 25.1778C34.4915 25.2938 35.2134 25.3924 35.2186 25.3924C35.2212 25.3924 35.5486 25.4505 35.5544 25.4563C35.5564 25.4601 35.5538 25.5723 35.5538 25.5723C35.5473 25.8701 35.5435 26.0861 35.5145 26.6082L35.5112 26.6682C35.4597 27.6145 35.4487 27.8111 35.1657 28.778C35.1599 28.7993 35.0665 29.0739 34.9279 29.3891C34.7989 29.6824 34.7138 29.8178 34.5856 30.0228C34.5649 30.0557 34.543 30.0905 34.5198 30.1278C34.378 30.3573 34.0686 30.775 33.8829 30.9704C33.725 31.1367 33.5039 31.3507 33.4446 31.3952C33.4362 31.4016 33.3995 31.4319 33.3492 31.4732C33.2009 31.595 32.9257 31.8226 32.798 31.9128C32.7542 31.9438 32.6743 31.9895 32.5969 32.034C32.5376 32.0675 32.4822 32.0997 32.4461 32.123L32.4357 32.13C32.3977 32.1545 32.3926 32.1578 32.3416 32.1816C32.2765 32.2119 32.185 32.2525 32.1147 32.2764V32.277ZM28.6918 25.4679C28.6918 26.0777 28.7685 27.3547 28.8097 27.6712C28.8368 27.882 29.0263 28.6832 29.2223 29.1596C29.4002 29.5909 29.4486 29.6901 29.7148 30.1079C29.9739 30.514 30.3104 30.9884 30.8377 31.4242C31.4147 31.9006 31.4733 31.9334 31.6145 32.0121C31.6564 32.0353 31.7041 32.0617 31.7744 32.1049C31.7989 32.1204 31.813 32.1294 31.824 32.1358C31.8479 32.1513 31.8524 32.1539 31.9207 32.1874L31.9407 32.1971C32.058 32.2532 32.058 32.2532 32.1051 32.2641L32.1147 32.2661C32.1843 32.2422 32.2746 32.2022 32.3391 32.1719C32.3893 32.1487 32.3938 32.1455 32.4319 32.121L32.4428 32.1139C32.4789 32.0907 32.535 32.0585 32.5943 32.025C32.6717 31.9811 32.7516 31.9354 32.7948 31.9044C32.9218 31.8142 33.197 31.5873 33.3453 31.4648C33.3975 31.4216 33.4323 31.3926 33.4414 31.3862C33.5 31.3417 33.7205 31.1283 33.8784 30.962C34.0634 30.7673 34.3722 30.3502 34.514 30.1214C34.5372 30.084 34.5591 30.0492 34.5798 30.0163C34.708 29.812 34.7925 29.6766 34.9214 29.384C35.06 29.0694 35.1528 28.7954 35.1593 28.7741C35.4423 27.8085 35.4526 27.6119 35.5042 26.6669L35.5074 26.6069C35.5357 26.0848 35.5403 25.8695 35.5467 25.571L35.5493 25.4634C35.5151 25.455 35.2353 25.4041 35.2218 25.4021C35.2186 25.4021 34.4857 25.3016 34.0389 25.1868C33.5522 25.0624 33.0668 24.8967 32.1528 24.4565H32.0954C30.6759 25.1533 30.0307 25.2519 29.1372 25.3886C29.025 25.406 28.909 25.4234 28.7872 25.4434C28.7195 25.4543 28.7105 25.4588 28.6969 25.4659L28.6918 25.4679Z" fill="black"/>
<path d="M32.0062 24.5261H32.0365C32.8326 24.9103 33.2336 25.0541 33.6042 25.1688C34.1696 25.3441 35.083 25.4718 35.1049 25.4718C35.1082 25.4718 35.4337 25.5311 35.4376 25.5343C35.4298 25.9011 35.4279 26.0977 35.3963 26.6817C35.3422 27.6777 35.3318 27.7905 35.1494 28.5002C35.0779 28.7787 34.9734 29.0772 34.8722 29.317C34.7665 29.5677 34.6576 29.7811 34.646 29.8004C34.468 30.0982 34.2972 30.3832 34.1116 30.6159C34.0632 30.6765 34.0761 30.6687 34.0265 30.73C33.9195 30.8615 33.9156 30.8956 33.5984 31.2128C33.456 31.3553 33.3819 31.4339 32.8539 31.8523C32.6644 32.0025 32.6509 32.0076 32.531 32.0759C32.4136 32.1423 32.4407 32.1307 32.3891 32.1585C32.3492 32.1804 32.3247 32.1978 32.2873 32.221C32.2615 32.2371 32.0926 32.3145 32.0011 32.3454C31.9392 32.3312 31.9521 32.3364 31.8051 32.2661C31.7058 32.2184 31.7406 32.2339 31.6588 32.1836C31.3249 31.9786 31.4905 32.1172 31.0702 31.7859C30.3296 31.2018 29.9351 30.7835 29.3704 29.8114C29.2782 29.6522 29.1783 29.413 29.1048 29.2351C28.8895 28.7136 28.7128 27.913 28.6916 27.7454C28.6516 27.4327 28.5736 26.1602 28.5736 25.5382C28.5917 25.5292 28.5942 25.5246 28.6703 25.5124C29.8197 25.328 30.3979 25.3016 31.9785 24.5261C31.9804 24.5261 32.003 24.5261 32.0062 24.5261Z" fill="#FFFF00"/>
<path d="M31.9988 32.3499L31.9866 32.3473C31.9383 32.3364 31.9383 32.3364 31.8196 32.279L31.8003 32.27C31.7307 32.2364 31.7268 32.2339 31.7023 32.2184C31.692 32.2113 31.6778 32.2023 31.6533 32.1875C31.5463 32.1217 31.4915 32.0921 31.4509 32.0695C31.3658 32.0231 31.3504 32.0147 31.0641 31.7891C30.3596 31.2341 29.9464 30.817 29.3623 29.8133C29.2669 29.6496 29.1644 29.4014 29.0968 29.2364C28.8853 28.7252 28.7068 27.9284 28.6829 27.7454C28.6417 27.4276 28.5649 26.146 28.5649 25.5375V25.5343L28.5727 25.5304C28.5869 25.5227 28.5965 25.5182 28.6661 25.5066C28.7873 25.4872 28.9021 25.4692 29.0136 25.4524C29.9451 25.3087 30.56 25.2139 31.9731 24.5203C31.9756 24.5197 32.0375 24.5203 32.0375 24.5203C32.7943 24.8852 33.1978 25.0366 33.604 25.1624C34.1667 25.337 35.0801 25.4653 35.1027 25.4653C35.1053 25.4653 35.4328 25.5233 35.4386 25.5291C35.4405 25.533 35.4379 25.6471 35.4379 25.6471C35.4315 25.9449 35.427 26.1596 35.3986 26.6811C35.3444 27.677 35.3341 27.7898 35.1511 28.5002C35.084 28.7606 34.9835 29.0585 34.8739 29.3176C34.7662 29.5722 34.6579 29.7837 34.6476 29.8017C34.4781 30.086 34.3027 30.3793 34.1126 30.6178C34.0894 30.6468 34.0803 30.6597 34.072 30.6726C34.0623 30.6868 34.0533 30.6997 34.0275 30.7319C34.003 30.7615 33.9843 30.7867 33.9656 30.8112C33.9031 30.8931 33.8444 30.9704 33.5988 31.2147L33.582 31.2315C33.4486 31.3643 33.3609 31.4526 32.8543 31.8542C32.6738 31.9973 32.6519 32.0095 32.5474 32.0688L32.5307 32.0785C32.4649 32.1159 32.4449 32.1282 32.4307 32.1372C32.4191 32.1443 32.4121 32.1488 32.3888 32.1617C32.3618 32.1765 32.3411 32.1894 32.3192 32.2036C32.3089 32.21 32.2986 32.2165 32.287 32.2242C32.2619 32.2403 32.0923 32.3183 31.9995 32.3493L31.9988 32.3499ZM28.5759 25.5407C28.5759 26.1506 28.6526 27.4276 28.6939 27.7441C28.7171 27.9265 28.8956 28.722 29.1064 29.2325C29.1741 29.3969 29.2766 29.6451 29.3714 29.8082C29.9541 30.8099 30.3667 31.2263 31.0706 31.7807C31.3562 32.0057 31.3716 32.0141 31.4561 32.0598C31.4967 32.0817 31.5521 32.112 31.6591 32.1778C31.6843 32.1933 31.6985 32.2023 31.7088 32.2094C31.7326 32.2248 31.7365 32.2274 31.8055 32.2603L31.8248 32.2693C31.9428 32.3261 31.9428 32.3261 31.9898 32.337L31.9995 32.3389C32.0917 32.3074 32.258 32.2306 32.2831 32.2152C32.2947 32.2081 32.305 32.2016 32.3147 32.1952C32.3366 32.181 32.3573 32.1681 32.385 32.1526C32.4075 32.1404 32.4153 32.1359 32.4262 32.1288C32.4411 32.1198 32.461 32.1069 32.5268 32.0701L32.5436 32.0605C32.648 32.0018 32.6693 31.9896 32.8491 31.8471C33.3551 31.4455 33.4434 31.3578 33.5762 31.225L33.593 31.2083C33.838 30.964 33.8966 30.8873 33.9585 30.8054C33.9772 30.7809 33.9959 30.7557 34.0204 30.7261C34.0462 30.6945 34.0552 30.6816 34.0642 30.6681C34.0732 30.6552 34.0823 30.6416 34.1055 30.6126C34.295 30.3748 34.4703 30.0815 34.6392 29.7978C34.6502 29.7798 34.7578 29.569 34.8648 29.315C34.9738 29.0565 35.075 28.7587 35.1414 28.4989C35.3238 27.7892 35.3341 27.677 35.3883 26.6817C35.4166 26.1602 35.4212 25.9456 35.4276 25.6478L35.4302 25.5382C35.396 25.5298 35.1162 25.4789 35.1027 25.4769C35.0808 25.4769 34.1648 25.3486 33.6014 25.174C33.1953 25.0476 32.7911 24.8961 32.0343 24.5313H31.9769C30.5633 25.2249 29.9477 25.3196 29.0155 25.4634C28.9047 25.4808 28.7899 25.4982 28.6687 25.5175C28.601 25.5285 28.592 25.533 28.5785 25.5401L28.5759 25.5407Z" fill="black"/>
<path d="M32.1066 23.8705H32.1414C33.0697 24.3185 33.7923 24.6195 34.7438 24.8097C34.9926 24.8593 35.6656 24.9605 35.6779 24.9605C35.6817 24.9605 36.0569 25.0289 36.0608 25.0321C36.0517 25.4556 36.0498 25.6812 36.0131 26.3549C35.9705 27.131 35.9505 27.4836 35.8641 27.8858C35.7159 28.5756 35.5444 29.1441 35.2285 29.7907C35.1473 29.9577 35.1647 29.9229 35.0519 30.1117C34.6768 30.7383 34.5427 30.8672 34.4853 30.9542C34.4569 30.9968 34.4279 31.0271 34.3712 31.1032C34.2075 31.3217 33.9051 31.6189 33.7446 31.7684C33.6537 31.8529 32.9872 32.4079 32.8228 32.5078C32.7867 32.5297 32.5379 32.6702 32.4812 32.707C32.4257 32.7431 32.4244 32.7444 32.3613 32.774C32.3052 32.8004 32.1859 32.854 32.1008 32.883C32.0634 32.8746 32.0422 32.8707 31.9996 32.8507C31.6857 32.7044 31.8836 32.7934 31.5142 32.5845C31.4111 32.5265 31.3318 32.4936 30.8754 32.1139C30.7852 32.0385 30.5608 31.8612 30.5202 31.8226C30.4493 31.7562 30.1844 31.5164 29.96 31.2566C29.855 31.1354 29.6364 30.8466 29.6061 30.8034C29.3373 30.4199 29.4624 30.6004 29.3296 30.3921C29.0234 29.9119 28.9686 29.8004 28.7617 29.2982C28.5187 28.7103 28.3117 27.7859 28.2853 27.5816C28.2383 27.2187 28.1493 25.7502 28.1493 25.0373C28.1699 25.0269 28.1725 25.0218 28.2608 25.0076C29.532 24.8033 30.2379 24.7717 32.0731 23.8705C32.0763 23.8705 32.1021 23.8705 32.1066 23.8705Z" fill="#05AF4A"/>
<path d="M32.1255 24.3494H32.1565C33.137 24.8219 33.6359 24.985 34.1091 25.1062C34.5738 25.2248 35.3274 25.3286 35.3325 25.3286C35.3364 25.3286 35.6729 25.3898 35.6768 25.393C35.6684 25.7727 35.6671 25.9758 35.6336 26.5811C35.5769 27.6163 35.5717 27.8052 35.2726 28.8263C35.2681 28.8405 35.174 29.1235 35.0263 29.458C34.7401 30.1078 34.276 30.688 34.2605 30.7118C34.2354 30.7499 34.209 30.7769 34.158 30.8453C33.9659 31.1018 33.5482 31.4912 33.4934 31.5331C33.4509 31.5653 33.1331 31.8328 33.0583 31.8889C32.8495 32.0462 32.8727 32.0481 32.6664 32.1648C32.3673 32.3337 32.4749 32.2944 32.2371 32.3975C32.1604 32.4304 32.1488 32.4336 32.1178 32.4446C32.0849 32.4368 32.0656 32.4336 32.0269 32.4156C31.7459 32.2847 31.9218 32.3634 31.5905 32.1764C31.4758 32.1113 31.45 32.0997 31.263 31.9514C30.612 31.4364 30.2104 31.1192 29.6283 30.2064C29.355 29.7778 29.3053 29.6772 29.1177 29.224C28.9005 28.6987 28.7142 27.869 28.6897 27.6821C28.6478 27.3585 28.5679 26.0409 28.5679 25.3969C28.5866 25.3879 28.5891 25.3827 28.6684 25.3705C29.861 25.179 30.4566 25.1526 32.0933 24.3488C32.0946 24.3494 32.1255 24.3494 32.1255 24.3494Z" fill="white"/>
<path d="M32.1149 24.7163H32.1426C32.2503 24.7691 32.3734 24.8291 32.4211 24.8517C33.2192 25.2288 33.7445 25.3835 34.2364 25.4827C34.4362 25.5234 34.9777 25.6059 34.988 25.6059C34.9912 25.6059 35.2929 25.6613 35.2961 25.6645C35.289 26.0094 35.2871 26.1938 35.2575 26.7449C35.2072 27.6854 35.1969 27.7899 35.0286 28.4564C34.9184 28.8928 34.7179 29.4162 34.4839 29.8127C34.1996 30.2942 34.0862 30.418 33.936 30.6217C33.7652 30.8531 33.3913 31.2083 33.341 31.247C33.2881 31.2876 32.8343 31.6802 32.6899 31.7691C32.6442 31.7975 32.523 31.8645 32.3741 31.958C32.3502 31.9728 32.1955 32.0457 32.1085 32.0753C32.0511 32.0618 32.0627 32.0669 31.9267 32.0005C31.7939 31.9361 31.908 31.987 31.6366 31.8316C31.4967 31.7517 31.5051 31.7569 31.2447 31.5486C31.2395 31.5441 30.8624 31.2341 30.8366 31.2096C30.5285 30.9182 30.27 30.6642 29.8787 30.0409C29.6202 29.6296 29.5932 29.5555 29.4816 29.2912C29.4198 29.1448 29.4062 29.1113 29.3617 28.9876C29.1838 28.4925 29.0536 27.8646 29.0381 27.7454C29.0008 27.4508 28.9292 26.2531 28.9292 25.6678C28.946 25.6594 28.9479 25.6549 29.0188 25.6433C30.0354 25.4776 30.6033 25.4537 32.0866 24.7144H32.1149V24.7163Z" fill="#05AF4A"/>
<path d="M31.7077 29.8474C31.6716 29.8474 31.6381 29.8332 31.613 29.8081L30.1839 28.3796C30.1587 28.3545 30.1445 28.3203 30.1445 28.2849C30.1445 28.2488 30.1587 28.2152 30.1839 28.1901L30.5294 27.8446C30.5545 27.8194 30.5887 27.8053 30.6241 27.8053C30.6596 27.8053 30.6931 27.8188 30.7182 27.8439L31.6878 28.7967C31.6929 28.8018 31.7 28.8051 31.7077 28.8051C31.7155 28.8051 31.7226 28.8018 31.7277 28.7967L33.7493 26.7868C33.7744 26.7616 33.8079 26.7474 33.844 26.7474C33.8801 26.7474 33.9136 26.7616 33.9388 26.7868L34.2862 27.1342C34.3384 27.1864 34.3384 27.2715 34.2862 27.3237L31.8025 29.8075C31.7774 29.8332 31.7438 29.8474 31.7077 29.8474Z" fill="white"/>
<path d="M33.8441 26.7797C33.8699 26.7797 33.8963 26.7893 33.9163 26.8093L34.2638 27.1568C34.3037 27.1967 34.3037 27.2612 34.2638 27.3012L31.78 29.7849C31.76 29.8049 31.7343 29.8146 31.7078 29.8146C31.682 29.8146 31.6556 29.8049 31.6356 29.7849L30.2065 28.3564C30.1872 28.3371 30.1769 28.3113 30.1769 28.2842C30.1769 28.2572 30.1878 28.2314 30.2065 28.212L30.552 27.8665C30.572 27.8465 30.5978 27.8369 30.6242 27.8369C30.65 27.8369 30.6758 27.8465 30.6958 27.8659L31.6653 28.8186C31.6769 28.8302 31.6924 28.836 31.7078 28.836C31.7233 28.836 31.7388 28.8302 31.7504 28.8186L33.7719 26.8087C33.7919 26.7893 33.8183 26.7797 33.8441 26.7797ZM33.8441 26.7152C33.7996 26.7152 33.7584 26.7326 33.7268 26.7636L31.7078 28.7709L30.7415 27.8207C30.71 27.7898 30.6687 27.773 30.6249 27.773C30.5804 27.773 30.5385 27.7904 30.5075 27.8214L30.162 28.1669C30.1304 28.1985 30.113 28.2404 30.113 28.2849C30.113 28.3293 30.1304 28.3712 30.162 28.4028L31.5912 29.8313C31.6227 29.8629 31.6646 29.8803 31.7085 29.8803C31.753 29.8803 31.7949 29.8629 31.8264 29.8313L34.3102 27.3476C34.3418 27.316 34.3592 27.2741 34.3592 27.2296C34.3592 27.1851 34.3418 27.1432 34.3102 27.1117L33.9627 26.7642C33.9305 26.7326 33.8886 26.7152 33.8441 26.7152Z" fill="white"/>
<path opacity="0.35" d="M30.7775 37.8911C30.9445 38.4996 31.406 38.7736 31.7399 38.8948C31.9507 38.9715 32.1106 38.987 32.1106 38.987C33.6113 39.3099 34.6124 39.2513 35.0965 39.1823C35.2357 39.1623 35.3318 39.141 35.3846 39.1288C35.3975 39.1262 35.4066 39.123 35.4143 39.121C35.3647 39.1417 35.2828 39.2422 36.0557 39.7064C36.748 40.1215 37.2528 40.6462 37.6002 41.0723C37.6009 41.073 37.6015 41.0736 37.6022 41.0749C37.6898 41.1819 37.7685 41.2837 37.8368 41.3753C37.86 41.4062 37.8819 41.4365 37.9032 41.4655C37.9896 41.5829 38.0437 41.6783 38.0772 41.7608C38.1714 41.9935 38.0908 42.1224 38.034 42.3396C37.9696 42.5898 37.7556 42.8785 37.6453 43.5986C37.6254 43.7288 37.6086 43.8732 37.597 44.0337C37.5912 44.1182 37.588 44.2052 37.5867 44.2922C37.5828 44.543 37.597 44.8008 37.6215 45.0483C37.6241 45.0761 37.6273 45.1044 37.6305 45.1321C37.6305 45.1321 37.7137 46.5458 38.1662 48.2231C38.1204 47.9305 38.0818 47.6249 38.0508 47.3161C38.0824 47.6249 38.1211 47.9305 38.1668 48.2231C38.1778 48.2644 38.1894 48.3063 38.201 48.3475C38.3789 48.9857 38.6103 49.6574 38.9114 50.3001C39.1815 50.8783 39.5077 51.4333 39.9002 51.9213C39.9047 51.9271 39.9093 51.9329 39.9144 51.9381C39.975 52.0135 40.0375 52.087 40.1014 52.1585C40.1084 52.1643 40.1149 52.1695 40.1239 52.1772C40.2367 52.2978 40.347 52.4061 40.4533 52.5047C40.7737 52.7987 41.0593 52.9959 41.2636 53.119C41.2862 53.1332 41.3074 53.1448 41.3274 53.1564C41.3513 53.17 41.3745 53.1835 41.399 53.197C41.4209 53.2093 41.4402 53.2196 41.4583 53.2286C41.4641 53.2318 41.4699 53.2344 41.4757 53.2376C41.5202 53.2609 41.5524 53.275 41.5705 53.2828C41.5808 53.2879 41.5866 53.2899 41.5866 53.2899C41.5879 53.2911 41.5898 53.2924 41.5911 53.2931C41.8599 53.5181 42.2131 53.8391 42.5915 54.2587C42.5954 54.2626 42.5993 54.2671 42.6031 54.2716C42.6831 54.3606 42.8487 54.5501 43.0821 54.8576C43.084 54.8608 43.0866 54.864 43.0885 54.8666C43.2342 55.0593 43.4063 55.2979 43.5991 55.5867C43.7216 55.7742 43.8924 56.0592 44.0935 56.4079C44.1489 56.5033 44.2063 56.6039 44.2656 56.7089C44.4126 56.9668 44.5712 57.2498 44.7362 57.547C44.7381 57.5508 44.7401 57.554 44.742 57.5579C44.7484 57.5695 44.7562 57.5837 44.7652 57.5998C44.7749 57.6179 44.7852 57.6366 44.7949 57.6546C44.8032 57.6688 44.811 57.683 44.8181 57.6971C44.8194 57.6984 44.82 57.6997 44.8206 57.701C44.9354 57.9073 45.0514 58.12 45.1687 58.3347H50.63C50.0485 56.6387 49.6573 55.577 49.2995 54.915C49.2402 54.8047 49.1815 54.7055 49.1229 54.6159C48.718 53.9977 48.3242 53.8603 47.6995 53.8436C47.6518 53.8423 47.6015 53.8417 47.55 53.8417C47.2264 53.8417 46.2652 54.0273 45.5091 54.1898C45.326 54.2291 45.1552 54.2665 45.0082 54.3C45.0005 54.3019 44.9928 54.3039 44.9844 54.3058C44.956 54.3122 44.9289 54.318 44.9025 54.3245C44.8696 54.3322 44.8387 54.3393 44.809 54.3464C44.8123 54.3458 44.8148 54.3445 44.8181 54.3438C44.878 54.3258 44.9399 54.3071 45.0031 54.2871C45.0592 54.2697 45.1172 54.2516 45.1752 54.2329C45.2764 54.2001 45.3795 54.1646 45.4833 54.1266C45.5381 54.1072 45.5923 54.0866 45.6471 54.0653C45.6812 54.0518 45.7154 54.0383 45.7489 54.0247C46.0203 53.9126 46.2865 53.7798 46.516 53.6193C46.5444 53.5986 46.5727 53.5786 46.6004 53.5574C46.6282 53.5361 46.6546 53.5148 46.681 53.4929C46.683 53.4916 46.6842 53.4897 46.6862 53.4884C46.7107 53.4678 46.7345 53.4471 46.7577 53.4259C46.7713 53.413 46.7848 53.4001 46.7983 53.3866C46.8383 53.3479 46.877 53.3073 46.9118 53.2647C46.9827 53.1809 47.0439 53.092 47.0929 52.9959C47.1058 52.9721 47.1174 52.9476 47.1284 52.9224C47.2502 52.6427 47.2728 52.312 47.1464 51.9181C47.1258 51.853 47.1052 51.7853 47.0858 51.7163C47.0562 51.6119 47.0285 51.5036 47.0027 51.3914C46.9853 51.316 46.9685 51.2393 46.9518 51.1613C46.9266 51.044 46.9034 50.9241 46.8815 50.8016C46.7558 50.1074 46.6649 49.337 46.5792 48.637C46.574 48.5957 46.5695 48.5551 46.5644 48.5145C46.554 48.4326 46.5444 48.3527 46.5341 48.274C46.5244 48.1948 46.5147 48.1174 46.5044 48.0413C46.4844 47.8892 46.4561 47.7242 46.4206 47.5495C46.4025 47.4618 46.3832 47.3716 46.3619 47.2787C46.3407 47.1866 46.3175 47.0918 46.293 46.9945C46.2685 46.8978 46.242 46.7991 46.215 46.6992C46.1879 46.5987 46.1589 46.4968 46.1279 46.393C46.0061 45.9798 45.8636 45.5447 45.7083 45.1077C45.6103 44.835 45.5085 44.5617 45.4027 44.2929C45.2545 43.9157 45.1004 43.5477 44.9444 43.2015C44.9218 43.1525 44.8999 43.1042 44.878 43.0565C44.8503 42.9978 44.8232 42.9398 44.7961 42.8843C44.7414 42.7728 44.6872 42.6671 44.6337 42.5665C44.6066 42.5169 44.5796 42.4679 44.5531 42.4209C44.5267 42.3732 44.5003 42.3274 44.4732 42.2823C44.4468 42.2378 44.4203 42.194 44.3939 42.1514C44.2482 41.9181 44.1051 41.7189 43.9633 41.5429C43.8866 41.4468 43.8086 41.3566 43.7312 41.2715C43.6919 41.229 43.6539 41.1877 43.6152 41.1477C43.5301 41.0581 43.4444 40.9724 43.358 40.8879C43.2716 40.8041 43.1859 40.7223 43.0989 40.6378C43.0408 40.5818 42.9828 40.5257 42.9235 40.4683C42.8758 40.4212 42.8307 40.3774 42.7875 40.3355C42.3891 39.9487 42.2228 39.8147 42.1164 39.7244C42.0971 39.7083 42.0804 39.6935 42.0642 39.6793C42.0494 39.6664 42.0352 39.6535 42.0217 39.64C41.9978 39.6174 41.9746 39.5929 41.9482 39.5626C41.9379 39.551 41.9269 39.5388 41.9153 39.5259C41.8921 39.5001 41.8657 39.4711 41.8367 39.4401C41.807 39.4085 41.7754 39.3744 41.7406 39.3383C41.7058 39.3022 41.6684 39.2641 41.6291 39.2235C41.5782 39.1707 41.5228 39.1152 41.4634 39.0559C41.4087 39.0011 41.3506 38.9438 41.29 38.8851C40.9239 38.5286 40.4585 38.0974 39.9737 37.6926C39.7926 37.5417 39.6089 37.3934 39.4271 37.2549C39.4161 37.2465 39.4058 37.2387 39.3948 37.2291C39.2801 37.142 39.1654 37.0589 39.0532 36.9809C39.0165 36.9551 38.9791 36.9293 38.9423 36.9048C38.9307 36.8971 38.9191 36.8887 38.9069 36.881C38.8966 36.8745 38.8869 36.8674 38.8766 36.861C38.7947 36.8088 38.7193 36.7636 38.6535 36.7263C38.6207 36.7076 38.5897 36.6908 38.5614 36.6753C38.5323 36.6599 38.5059 36.647 38.4821 36.6354C38.4511 36.6205 38.4195 36.6038 38.3873 36.587C38.3551 36.5696 38.3222 36.5516 38.2893 36.5322C38.2564 36.5129 38.2236 36.4929 38.1894 36.4723C38.1391 36.4413 38.0876 36.4091 38.0353 36.3756C38.0179 36.364 38.0005 36.353 37.9831 36.3421C37.9483 36.3201 37.9129 36.2969 37.8768 36.2737C37.8413 36.2512 37.8059 36.228 37.7698 36.2048C37.4449 35.9985 37.1006 35.7986 36.7622 35.7406C36.6288 35.7181 36.5437 35.6775 36.4915 35.6278C36.4064 35.5479 36.4102 35.4441 36.4393 35.3558C36.4534 35.3132 36.4728 35.2746 36.4908 35.2436C36.4979 35.2314 36.5044 35.2204 36.5114 35.2108C36.5173 35.2011 36.5224 35.1933 36.5269 35.1875C36.534 35.1779 36.5385 35.1727 36.5385 35.1727C36.5385 35.1727 36.5469 35.1585 36.5559 35.134C36.5836 35.0599 36.6197 34.8955 36.4741 34.746C36.4592 34.7305 36.4425 34.7157 36.4244 34.7015C36.4122 34.6918 36.3986 34.6828 36.3851 34.6725C36.3703 34.6628 36.3548 34.6532 36.3387 34.6448C36.3226 34.6357 36.3052 34.6267 36.2871 34.6177C36.2323 34.5913 36.1672 34.5668 36.0912 34.5455C35.9674 34.51 35.8449 34.4991 35.7282 34.5055C35.7269 34.5049 35.7257 34.5049 35.7237 34.5055C35.6128 34.5113 35.5065 34.5326 35.4079 34.5616C35.4066 34.5623 35.4053 34.5629 35.4033 34.5629C35.4027 34.5635 35.4014 34.5642 35.4001 34.5642C35.0546 34.6706 34.8045 34.8807 34.7697 34.911C34.7684 34.9129 34.7671 34.9136 34.7645 34.9155C34.0232 35.7793 33.3244 36.0442 33.3244 36.0442C32.3291 36.0114 31.6407 36.3498 31.6407 36.3498C31.6407 36.3498 31.3441 36.4929 31.0902 36.7649C30.8478 37.0254 30.6441 37.405 30.7775 37.8911Z" fill="#37363A"/>
<path d="M42.6462 58.8084C42.3239 58.167 42.0177 57.5591 41.8121 57.1549C41.7496 57.0324 41.6961 56.9287 41.6548 56.8481C41.6529 56.8449 41.6509 56.8416 41.6503 56.8384C41.638 56.8159 41.6258 56.7939 41.6148 56.7727C41.6136 56.7707 41.6116 56.7682 41.6103 56.7662C40.7498 55.7052 40.6917 55.5949 40.8722 55.3616C39.8744 55.5679 39.8827 55.1482 38.9197 54.3611C37.8747 53.5077 35.7649 49.3402 35.6482 49.121C35.6476 49.1191 35.6469 49.1178 35.6456 49.1165C35.6443 49.1145 35.6437 49.1133 35.6437 49.1126C35.5953 49.0095 35.547 48.9057 35.4987 48.8006C35.4684 48.7342 35.4381 48.6678 35.4078 48.6034C35.2608 48.2849 35.1132 47.962 34.9694 47.6467C34.3377 46.2563 33.7904 45.0199 33.7904 45.0199C33.7904 45.0199 33.3791 43.9904 32.5437 43.7042H35.1564C35.2853 43.7932 35.4091 43.9047 35.5251 44.0452C36.501 45.232 38.1171 48.2617 38.4955 49.121C38.783 49.774 39.7255 50.9072 40.1586 51.4113C40.1632 51.4171 40.1677 51.4229 40.1728 51.4281C40.2921 51.5673 40.3707 51.6544 40.3804 51.6653C40.4945 51.7878 40.6047 51.8967 40.7117 51.9947C41.0321 52.2887 41.3177 52.4859 41.5214 52.6084C41.5446 52.6232 41.5658 52.6348 41.5858 52.6464C41.6097 52.66 41.6329 52.6735 41.6567 52.6864C41.6793 52.6993 41.6986 52.7096 41.7167 52.7186C41.7225 52.7212 41.7283 52.7244 41.7341 52.727C41.7786 52.7502 41.8108 52.765 41.8289 52.7728C41.8392 52.7779 41.845 52.7799 41.845 52.7799C41.8463 52.7812 41.8482 52.7825 41.8495 52.7831C41.8959 52.8153 42.2814 53.0957 42.8499 53.7487C42.8538 53.7526 42.8577 53.7571 42.8615 53.7616C43.0311 53.9576 43.1909 54.1529 43.3405 54.3476C43.3424 54.3508 43.345 54.354 43.3469 54.3566C43.755 54.8859 44.0915 55.4061 44.3738 55.8895C44.4338 55.992 44.4912 56.0926 44.5459 56.1912C44.7077 56.4807 44.8502 56.754 44.9772 57.0041C44.9791 57.0086 44.9849 57.0196 44.9946 57.037C44.9965 57.0408 44.9985 57.0441 45.0004 57.0479C45.0081 57.0615 45.0159 57.0756 45.0236 57.0898C45.0333 57.1079 45.0436 57.1266 45.0533 57.1446C45.0604 57.1582 45.0681 57.1723 45.0765 57.1872C45.0778 57.1884 45.0784 57.1897 45.079 57.191C45.1906 57.3967 45.3865 57.7538 45.6199 58.1799C45.6379 58.2121 45.6553 58.2443 45.6727 58.2766C45.7662 58.4461 45.8642 58.6247 45.9648 58.8084H42.6462Z" fill="#E8AF80"/>
<path d="M45.0408 40.7699C44.8268 40.4328 43.7986 39.2467 43.4247 38.8083C43.3216 38.7058 43.2281 38.6169 43.1514 38.5505C43.1514 38.5505 43.1501 38.5498 43.1482 38.5479C43.1469 38.5466 43.1443 38.5453 43.1417 38.5434C43.1391 38.5408 43.1359 38.5389 43.1333 38.5363C43.0869 38.4957 43.0489 38.4647 43.0199 38.4435C43.0186 38.4422 43.0167 38.4409 43.0154 38.4402C42.6866 38.1676 41.8621 37.4598 41.6468 37.0382C41.3755 36.5096 41.0789 35.1288 41.0789 34.7917C41.0789 34.4539 40.7179 34.4926 40.551 34.3204C40.3847 34.1483 40.3047 32.4278 40.3047 31.9979C40.3047 31.5679 40.7863 31.069 40.8894 31.0342C40.9926 31 40.5968 30.7415 40.4246 30.5526C40.2525 30.3631 40.0031 28.5743 39.9251 27.9032C39.8471 27.2322 39.9251 26.3349 39.9251 26.3349C39.9251 26.3349 39.5666 24.742 39.1328 23.9033V23.7744C39.1502 23.786 39.1702 23.8002 39.1928 23.8176C39.1953 23.8195 39.1973 23.8215 39.2011 23.8247C39.4377 24.3823 42.1561 30.2484 43.3577 33.2839C44.4297 35.9939 44.5354 37.3328 44.5464 37.4591C44.558 37.5848 44.5767 37.8839 44.7339 38.5266C44.7707 38.6762 44.77 38.9914 44.7862 39.2022C44.79 39.255 44.7958 39.3021 44.8029 39.3376C44.8538 39.5915 44.8326 39.5941 44.8816 39.928C44.9499 40.3896 45.0608 40.8008 45.0408 40.7699Z" fill="#F7C58D"/>
<path d="M42.7745 58.8084H42.242C41.8746 58.1238 41.5993 57.641 41.3905 57.3026C41.3202 57.1885 41.2577 57.0905 41.2009 57.0067C41.1378 56.9126 41.0823 56.8359 41.034 56.7746C41.034 56.7746 40.9966 56.7276 40.2185 55.7574C39.9891 55.7574 39.8279 55.7516 39.6036 55.6279C39.3792 55.5041 39.0904 55.2617 38.607 54.7879C38.0036 54.1981 36.9026 51.8549 36.5539 51.2328C36.3772 50.9169 35.935 49.7663 35.4986 48.8006C35.4683 48.7343 35.438 48.6679 35.4077 48.6034C35.5244 48.8232 37.8031 53.3227 39.0408 54.3567C40.0019 55.1599 40.0232 55.488 41.0211 55.2817C40.6833 55.4241 41.0295 55.9759 41.6103 56.7663C41.6116 56.7682 41.6135 56.7708 41.6148 56.7727C41.6258 56.794 41.638 56.8159 41.6502 56.8385C41.6515 56.8417 41.6535 56.8449 41.6554 56.8481C41.7044 56.9384 41.7618 57.0383 41.8269 57.1498C42.0525 57.5372 42.3735 58.0652 42.7745 58.8084Z" fill="#F7C58D"/>
<path d="M45.2047 40.9898C44.9901 40.652 43.7988 39.2467 43.4249 38.8083C43.813 38.9618 44.7516 39.7759 44.769 38.8548C45.0732 39.6032 45.3478 40.875 45.2047 40.9898Z" fill="#E8AF80"/>
<path d="M45.9596 58.8084C45.8655 58.6324 45.7695 58.4545 45.6728 58.2766C45.6554 58.2443 45.638 58.2121 45.6199 58.1799C45.4388 57.8447 45.2564 57.5107 45.0791 57.191C45.0784 57.1897 45.0778 57.1884 45.0765 57.1871C45.0694 57.173 45.0617 57.1588 45.0533 57.1446C45.0436 57.1266 45.0333 57.1079 45.0236 57.0898C45.0146 57.0737 45.0069 57.0595 45.0004 57.0479C44.9985 57.044 44.9966 57.0408 44.9946 57.0369C44.8296 56.7398 44.671 56.4568 44.5241 56.1989C44.4648 56.0939 44.4074 55.9933 44.352 55.8979C44.1508 55.5492 43.98 55.2642 43.8575 55.0766C43.6648 54.7879 43.4927 54.5493 43.347 54.3566C43.345 54.354 43.3425 54.3508 43.3405 54.3476C43.1072 54.0401 42.9415 53.8506 42.8616 53.7616C42.8577 53.7571 42.8538 53.7526 42.85 53.7487C42.4716 53.3291 42.1183 53.0081 41.8495 52.7831C41.8482 52.7824 41.8463 52.7811 41.845 52.7799C41.845 52.7799 41.8392 52.7779 41.8289 52.7728C41.8108 52.765 41.7786 52.7508 41.7341 52.7276C41.7283 52.7244 41.7225 52.7218 41.7167 52.7186C41.6987 52.7096 41.6793 52.6993 41.6574 52.687C41.6329 52.6735 41.6097 52.66 41.5859 52.6464C41.5659 52.6348 41.5446 52.6232 41.5221 52.609C41.3177 52.4859 41.0321 52.2887 40.7118 51.9947C40.6054 51.8961 40.4952 51.7878 40.3824 51.6672C40.3733 51.6595 40.3669 51.6543 40.3598 51.6485C40.296 51.577 40.2335 51.5035 40.1729 51.4281C40.1677 51.4229 40.1632 51.4171 40.1587 51.4113C39.3 50.3458 38.7611 48.9566 38.4253 47.7131C38.1423 45.9043 38.1358 43.6036 38.3924 43.0493C38.9429 41.8625 38.9429 41.3294 38.8746 41.0709C38.8056 40.8131 38.522 40.4547 38.2209 40.1646C37.9921 39.9454 37.3056 39.4284 37.0103 39.2086C36.9607 39.1577 36.9188 39.1267 36.873 39.1068C36.8182 39.081 36.7576 39.07 36.6719 39.0558C36.5771 39.0404 36.4521 39.0204 36.271 38.9733C35.7623 38.8405 35.6708 38.3603 35.6663 37.9542V37.8362C35.6669 37.8104 35.6676 37.7846 35.6689 37.7601C35.6702 37.7324 35.6689 37.7047 35.6663 37.677C35.6656 37.6647 35.6637 37.6518 35.6618 37.6396C35.6025 37.247 35.2138 36.8654 35.2138 36.8654C35.3511 37.6138 35.2138 37.6222 35.2138 37.6222C33.7853 38.7922 31.9984 38.3848 31.9984 38.3848C31.6645 38.2636 31.2029 37.9896 31.036 37.3811C30.7626 36.3871 31.8991 35.8398 31.8991 35.8398C31.8991 35.8398 32.5876 35.5014 33.5829 35.5342C33.5829 35.5342 34.2816 35.2693 35.023 34.4055C35.0255 34.4036 35.0268 34.4029 35.0281 34.401C35.0629 34.3707 35.313 34.1606 35.6586 34.0542C35.6598 34.0542 35.6611 34.0535 35.6618 34.0529C35.6637 34.0529 35.665 34.0523 35.6663 34.0516C35.8693 33.991 36.1053 33.9659 36.3496 34.0355C36.4257 34.0568 36.4908 34.0813 36.5456 34.1077C36.5636 34.1167 36.581 34.1257 36.5971 34.1348C36.6132 34.1432 36.6287 34.1528 36.6435 34.1625C36.6571 34.1728 36.6706 34.1818 36.6829 34.1915C36.7009 34.2057 36.7177 34.2205 36.7325 34.236C36.8782 34.3855 36.8421 34.5499 36.8144 34.624C36.8053 34.6485 36.797 34.6627 36.797 34.6627C36.797 34.6627 36.7925 34.6679 36.7854 34.6775C36.7808 34.6833 36.7757 34.6911 36.7699 34.7008C36.7628 34.7104 36.7564 34.7214 36.7493 34.7336C36.7312 34.7646 36.7119 34.8032 36.6977 34.8458C36.6687 34.9341 36.6648 35.0379 36.7499 35.1178C36.8021 35.1675 36.8872 35.2081 37.0206 35.2306C37.3591 35.2886 37.7033 35.4885 38.0282 35.6948C38.0643 35.718 38.0997 35.7412 38.1352 35.7637C38.1713 35.7869 38.2068 35.8101 38.2416 35.8321C38.259 35.843 38.2764 35.854 38.2938 35.8656C38.346 35.8991 38.3976 35.9313 38.4478 35.9623C38.482 35.9829 38.5149 36.0029 38.5478 36.0222C38.5806 36.0416 38.6135 36.0596 38.6457 36.077C38.678 36.0938 38.7096 36.1105 38.7405 36.1254C38.7644 36.137 38.7908 36.1499 38.8198 36.1653C38.8482 36.1808 38.8791 36.1976 38.912 36.2163C38.9777 36.2536 39.0531 36.2988 39.135 36.351C39.1453 36.3574 39.155 36.3645 39.1653 36.371C39.1776 36.3787 39.1892 36.3871 39.2008 36.3948C39.2375 36.4193 39.2749 36.4451 39.3116 36.4709C39.4238 36.5489 39.5385 36.632 39.6533 36.7191C39.6642 36.7287 39.6746 36.7365 39.6855 36.7449C39.8673 36.8834 40.051 37.0317 40.2322 37.1826C40.7169 37.5874 41.1823 38.0186 41.5485 38.3751C41.6091 38.4338 41.6671 38.4911 41.7219 38.5459C41.7812 38.6052 41.8366 38.6607 41.8876 38.7135C41.9269 38.7541 41.9643 38.7922 41.9991 38.8283C42.0339 38.8644 42.0655 38.8985 42.0951 38.9301C42.1241 38.9611 42.1506 38.9901 42.1738 39.0159C42.1854 39.0288 42.1963 39.041 42.2066 39.0526C42.2331 39.0829 42.2563 39.1074 42.2801 39.13C42.2937 39.1435 42.3078 39.1564 42.3227 39.1693C42.4303 39.2653 42.5779 39.371 43.0459 39.8255C43.0891 39.8674 43.1343 39.9112 43.182 39.9583C43.2413 40.0157 43.2993 40.0718 43.3573 40.1278C43.4443 40.2123 43.5301 40.2941 43.6164 40.3779C43.7028 40.4624 43.7885 40.5481 43.8736 40.6377C43.9123 40.6777 43.9504 40.719 43.9897 40.7615C44.067 40.8466 44.145 40.9368 44.2217 41.0329C44.3636 41.2089 44.5067 41.4081 44.6523 41.6414C44.6788 41.684 44.7052 41.7278 44.7316 41.7723C44.7587 41.8174 44.7851 41.8632 44.8116 41.9109C44.838 41.9579 44.8651 42.0069 44.8921 42.0565C44.9456 42.1571 44.9998 42.2628 45.0546 42.3743C45.0817 42.4298 45.1087 42.4878 45.1365 42.5465C45.1584 42.5942 45.1803 42.6425 45.2029 42.6915C45.3589 43.0377 45.5129 43.4057 45.6612 43.7828C45.7669 44.0517 45.8687 44.325 45.9667 44.5977C46.1221 45.0347 46.2645 45.4698 46.3864 45.883C46.4173 45.9868 46.4463 46.0887 46.4734 46.1892C46.5005 46.2891 46.5269 46.3878 46.5514 46.4845C46.5759 46.5818 46.5991 46.6766 46.6204 46.7687C46.6417 46.8616 46.661 46.9518 46.679 47.0395C46.7145 47.2142 46.7429 47.3792 46.7628 47.5313C46.7732 47.6074 46.7828 47.6848 46.7925 47.764C46.8028 47.8427 46.8125 47.9226 46.8228 48.0045C46.8279 48.0451 46.8325 48.0857 46.8376 48.127C46.9234 48.827 47.0142 49.5974 47.1399 50.2916C47.1619 50.4141 47.1851 50.534 47.2102 50.6513C47.227 50.7293 47.2437 50.806 47.2611 50.8814C47.2869 50.9936 47.3146 51.1019 47.3443 51.2063C47.3636 51.2753 47.3843 51.343 47.4049 51.4081C47.617 52.0695 47.4094 52.5529 47.0162 52.9159C46.991 52.9384 46.9659 52.961 46.9395 52.9829C46.913 53.0048 46.8866 53.0261 46.8589 53.0474C46.8312 53.0686 46.8028 53.0886 46.7744 53.1093C46.545 53.2698 46.2787 53.4026 46.0073 53.5147C45.9738 53.5283 45.9397 53.5418 45.9055 53.5553C45.7469 53.6172 45.5877 53.6727 45.4336 53.7229C45.3756 53.7416 45.3176 53.7597 45.2615 53.7771C45.1983 53.7971 45.1365 53.8158 45.0765 53.8338C45.0733 53.8345 45.0707 53.8357 45.0675 53.8364C45.0971 53.8293 45.1281 53.8222 45.161 53.8145C45.1874 53.808 45.2145 53.8022 45.2428 53.7958C45.2512 53.7938 45.2589 53.7919 45.2667 53.79C46.0209 53.6179 47.4068 53.3317 47.8084 53.3317C47.86 53.3317 47.9103 53.3323 47.958 53.3336C48.5826 53.3503 48.9765 53.4877 49.3813 54.1058C49.44 54.1954 49.4986 54.2947 49.5579 54.405C49.9802 55.1869 50.4494 56.5258 51.2236 58.8084H45.9596Z" fill="#F7C58D"/>
<path d="M40.3596 51.6486C38.8944 50.4013 36.4655 48.2025 35.6429 46.6792C35.3206 46.0823 34.9925 45.575 34.676 45.1308C34.3015 44.6055 33.945 44.1703 33.6362 43.7823L33.5679 43.7043H37.0772C37.4298 43.7043 37.7611 43.616 38.0512 43.46L37.8449 43.7823C37.8411 44.033 37.8553 44.2909 37.8791 44.5378C37.8817 44.5661 37.8856 44.5945 37.8881 44.6216C37.8881 44.6216 38.1408 48.907 40.1585 51.4114C40.163 51.4172 40.1675 51.4224 40.172 51.4282C40.2333 51.5036 40.2958 51.5771 40.3596 51.6486Z" fill="#D69365"/>
<path d="M43.0163 38.439C43.0124 38.4364 43.0079 38.4332 43.004 38.4306C42.752 38.2669 41.4847 37.2065 41.4847 37.2065C41.2887 36.9538 40.6318 36.4374 40.0388 35.9933C40.1045 35.6284 40.2876 35.2507 40.3063 35.221C40.2779 35.2468 39.9982 35.4383 39.8699 35.2771C39.7384 35.1108 39.5746 32.3583 39.6565 31.704C39.6868 31.4642 39.7925 31.3004 39.9144 31.1896C39.9543 31.1535 39.9717 31.0987 39.9608 31.0465C39.9498 30.9936 39.9111 30.9511 39.8602 30.9343C39.7107 30.8853 39.6159 30.7789 39.5321 30.5688C39.3774 30.182 39.2626 27.8163 39.2652 27.2548C39.2678 26.6927 39.592 25.6787 39.5959 25.6355C39.6004 25.5929 39.6178 25.5627 39.536 25.5543C39.4863 25.5485 39.291 25.5949 39.135 25.6303V23.9021C39.5688 24.7401 39.9273 26.3336 39.9273 26.3336C39.9273 26.3336 39.8493 27.2309 39.9273 27.902C40.0053 28.573 40.2547 30.3619 40.4268 30.5514C40.5989 30.7409 40.9947 30.9988 40.8916 31.0329C40.7885 31.0671 40.3069 31.566 40.3069 31.9966C40.3069 32.4266 40.3869 34.1471 40.5532 34.3192C40.7195 34.4913 41.0811 34.4527 41.0811 34.7904C41.0811 35.1276 41.3777 36.509 41.649 37.0369C41.8624 37.4585 42.6869 38.167 43.0163 38.439Z" fill="#E8AF80"/>
<path d="M40.2548 35.1714C40.2812 35.1534 40.3173 35.1553 40.3411 35.1772C40.365 35.1992 40.3708 35.2346 40.3547 35.2623C40.2264 35.4905 40.0755 35.789 40.0388 35.9933C39.6714 35.7181 39.3278 35.4712 39.1344 35.3332V25.631C39.2904 25.5949 39.4857 25.5491 39.5354 25.5549C39.6172 25.5633 39.5998 25.5936 39.5953 25.6362C39.5914 25.6794 39.2672 26.6933 39.2646 27.2555C39.262 27.8169 39.3768 30.1827 39.5315 30.5695C39.6262 30.806 39.7339 30.9111 39.9189 30.9511C39.9615 30.9601 39.995 30.993 40.0046 31.0355C40.0143 31.0781 39.9982 31.1219 39.964 31.149C39.8222 31.2592 39.6907 31.4326 39.6565 31.7047C39.5747 32.3583 39.7384 35.1108 39.8699 35.2778C39.9344 35.3597 40.102 35.2765 40.2548 35.1714Z" fill="#D69365"/>
<path d="M52.156 58.8084H51.0014C50.0667 56.707 49.1365 54.7963 49.1365 54.7963C49.1056 54.7435 49.074 54.6732 49.0392 54.592C48.9992 54.4979 48.9554 54.3896 48.9058 54.2767C48.7214 53.8597 48.4507 53.3794 47.9582 53.3337C47.9105 53.3285 47.8608 53.3279 47.8093 53.3317C47.4077 53.3627 46.0211 53.6231 45.2669 53.7907C45.2591 53.792 45.2514 53.7939 45.243 53.7959C45.2147 53.8023 45.1876 53.8081 45.1612 53.8146C45.1315 53.821 45.1031 53.8274 45.0767 53.8339C45.0741 53.8345 45.0709 53.8352 45.0683 53.8358C45.1309 53.8171 45.1953 53.7978 45.2617 53.7772C45.3178 53.7598 45.3758 53.7417 45.4338 53.723C45.5879 53.6727 45.7471 53.6173 45.9057 53.5554C45.9399 53.5419 45.974 53.5283 46.0075 53.5148C46.2789 53.4026 46.5452 53.2698 46.7746 53.1093C46.803 53.0887 46.8314 53.0687 46.8591 53.0475C46.8868 53.0262 46.9132 53.0049 46.9397 52.983C46.9661 52.9611 46.9912 52.9385 47.0164 52.9159C47.4096 52.553 47.6172 52.0696 47.4051 51.4082C47.3845 51.3431 47.3638 51.2754 47.3445 51.2064C47.3155 51.102 47.2878 50.9937 47.2613 50.8815C47.2439 50.8061 47.2272 50.7294 47.2104 50.6514C47.1859 50.5347 47.1627 50.4142 47.1401 50.2917C47.0144 49.5974 46.9236 48.8271 46.8378 48.127C46.8327 48.0858 46.8281 48.0452 46.823 48.0046C46.8127 47.9227 46.803 47.8428 46.7927 47.7641C46.783 47.6848 46.7734 47.6075 46.763 47.5314C46.7431 47.3793 46.7147 47.2143 46.6792 47.0396C46.6618 46.9519 46.6419 46.8616 46.6206 46.7695C46.5993 46.6766 46.5767 46.5819 46.5516 46.4852C46.5278 46.3885 46.5013 46.2899 46.4736 46.1893C46.4465 46.0887 46.4175 45.9869 46.3866 45.8831C46.2654 45.4699 46.1229 45.0348 45.9669 44.5984C45.8696 44.3251 45.7671 44.0517 45.6614 43.7829C45.5131 43.4058 45.3591 43.0377 45.2031 42.6916C45.1811 42.6419 45.1592 42.5936 45.1373 42.5465C45.1096 42.4872 45.0825 42.4299 45.0548 42.3744C45.0006 42.2623 44.9458 42.1565 44.8923 42.0566C44.8653 42.007 44.8388 41.9586 44.8118 41.9109C44.7853 41.8632 44.7589 41.8175 44.7318 41.7723C44.7054 41.7272 44.679 41.684 44.6525 41.6415C44.5075 41.4081 44.3644 41.2096 44.2219 41.033C44.1452 40.9369 44.0672 40.8467 43.9899 40.7616C43.9518 40.719 43.9132 40.6778 43.8745 40.6372C43.7887 40.5476 43.703 40.4618 43.6173 40.378C43.5303 40.2936 43.4445 40.2111 43.3575 40.1279C43.2995 40.0718 43.2415 40.0157 43.1828 39.9584C43.1345 39.9107 43.0893 39.8668 43.0468 39.8256C42.5788 39.3711 42.4312 39.2648 42.3229 39.1694C42.308 39.1558 42.2939 39.1436 42.2803 39.13C42.2565 39.1075 42.2333 39.083 42.2068 39.0527C42.1965 39.0411 42.1856 39.0288 42.174 39.0159C42.1508 38.9901 42.1243 38.9611 42.0953 38.9302C42.0663 38.8986 42.0341 38.8644 41.9993 38.8284C41.9651 38.7923 41.9277 38.7536 41.8878 38.7136C41.8368 38.6607 41.7814 38.6053 41.7227 38.5466C41.6673 38.4912 41.6093 38.4338 41.5487 38.3752C41.1819 38.0174 40.7165 37.5862 40.2324 37.1813C40.0512 37.0299 39.8682 36.8829 39.6864 36.7443C39.6754 36.7365 39.6645 36.7282 39.6535 36.7191C39.5387 36.6321 39.424 36.549 39.3118 36.471C39.2751 36.4445 39.2384 36.4194 39.2016 36.3943C39.1894 36.3865 39.1778 36.3788 39.1662 36.371C39.1552 36.364 39.1455 36.3569 39.1352 36.3511C39.0533 36.2988 38.9779 36.2537 38.9122 36.2163C38.8793 36.197 38.8484 36.1802 38.82 36.1654C38.791 36.1499 38.7646 36.137 38.7407 36.1254C38.7098 36.1106 38.6782 36.0939 38.6459 36.0771C38.6137 36.0597 38.5808 36.041 38.548 36.0223C38.5151 36.003 38.4822 35.983 38.448 35.9624C38.3978 35.9314 38.3462 35.8985 38.294 35.8657C38.2766 35.8541 38.2592 35.8431 38.2418 35.8321C38.207 35.8096 38.1715 35.7864 38.136 35.7638C38.1 35.7406 38.0645 35.7174 38.0284 35.6948C37.7035 35.4886 37.3593 35.2887 37.0209 35.2307C36.8874 35.2081 36.8023 35.1675 36.7501 35.1179C36.6657 35.0373 36.6695 34.9342 36.6979 34.8459C36.7121 34.8033 36.7314 34.7646 36.7495 34.7337C36.7566 34.7215 36.7636 34.7105 36.7694 34.7015C36.7759 34.6912 36.7817 34.6834 36.7856 34.6776C36.7927 34.668 36.7972 34.6628 36.7972 34.6628C36.7972 34.6628 36.8055 34.6486 36.8146 34.6241C36.8423 34.5506 36.8797 34.385 36.7327 34.2361C36.7179 34.2206 36.7011 34.2058 36.6831 34.1916C36.6708 34.1813 36.6573 34.1716 36.6437 34.1626C36.6289 34.1529 36.6134 34.1432 36.5973 34.1348C36.5812 34.1252 36.5638 34.1162 36.5458 34.1078C36.491 34.0813 36.4259 34.0568 36.3498 34.0356C36.1055 33.966 35.8696 33.9911 35.6665 34.0517C35.6652 34.0523 35.6633 34.053 35.662 34.053C35.6607 34.0536 35.6601 34.0543 35.6588 34.0543C35.3132 34.1606 35.0631 34.3708 35.0283 34.4011C35.038 34.3895 35.0477 34.3766 35.0586 34.3643C35.252 34.1342 35.4602 33.9724 35.662 33.8583C35.6639 33.857 35.6652 33.8564 35.6665 33.8557C36.2505 33.527 36.7856 33.5992 36.7856 33.5992C36.7856 33.5992 37.0582 33.5444 37.8124 34.3534C37.8124 34.3534 38.37 34.9658 38.9715 35.2172C38.9715 35.2172 39.0327 35.2597 39.1352 35.3332C39.2603 35.4222 39.4485 35.5569 39.6651 35.7161C39.7837 35.8031 39.9101 35.8966 40.0396 35.9933C40.3742 36.2434 40.7287 36.5174 41.0098 36.7533C41.227 36.9357 41.3998 37.0962 41.4855 37.2065C41.4855 37.2065 42.7528 38.2669 43.0049 38.4306C43.0088 38.4332 43.0133 38.4358 43.0171 38.439C43.0184 38.4396 43.0204 38.4409 43.0216 38.4422C43.0752 38.4861 43.1138 38.5176 43.1357 38.535C43.1383 38.537 43.1409 38.5389 43.1435 38.5421C43.1461 38.5441 43.1486 38.5454 43.1499 38.5466C43.1519 38.5486 43.1532 38.5499 43.1532 38.5499C43.2299 38.6163 43.3233 38.7052 43.4265 38.8077C43.8004 39.2461 44.8285 40.4322 45.0425 40.7693C45.0625 40.8003 44.9516 40.389 44.8833 39.9274C44.8343 39.5935 44.8556 39.5909 44.8047 39.337C44.7982 39.3009 44.7924 39.2544 44.7886 39.2009C44.7718 38.9902 44.7724 38.6749 44.7363 38.5254C44.5784 37.8827 44.5597 37.5842 44.5481 37.4579C44.5372 37.3322 44.4321 35.9933 43.3601 33.2833C42.1585 30.2478 39.4401 24.3811 39.2035 23.8241C39.4098 23.9859 39.8333 24.4139 40.3407 25.4543C41.0633 26.9338 43.9364 32.7657 44.1601 33.1441C44.3837 33.5225 45.1064 34.9851 45.4673 36.5335C45.829 38.0819 46.1558 38.7781 46.2764 39.2345C46.3963 39.6896 46.7579 40.5933 47.0673 42.6581C47.3774 44.7221 48.0484 49.1952 48.3404 49.8488C48.5777 50.3787 49.5478 52.8263 49.9997 53.8835C50.0345 53.9647 50.0661 54.0376 50.0945 54.1008C50.099 54.1117 50.1041 54.1227 50.1086 54.133C50.1086 54.133 50.1183 54.1549 50.137 54.1968C50.302 54.5675 51.1678 56.5142 52.156 58.8084Z" fill="#F4D8C6"/>
<path d="M35.6432 38.6188C35.5904 38.6311 35.4937 38.6524 35.3551 38.6723C35.6072 38.6001 35.4492 37.541 35.4209 37.3593C35.4537 37.5269 35.6258 38.428 35.6432 38.6188Z" fill="#D69365"/>
<path d="M33.1838 35.8612C33.1838 35.8612 32.8228 36.5496 32.7796 36.7469C32.7364 36.9448 32.38 37.1769 32.1949 37.1897C32.0099 37.2026 31.4678 37.2368 31.4291 37.1897C31.3905 37.1427 31.188 37.0434 31.2744 36.7553C31.3602 36.4671 31.8204 36.0198 31.9152 35.9766C32.0099 35.9334 32.8054 35.6626 33.1496 35.7097C33.1496 35.7103 33.2721 35.6897 33.1838 35.8612Z" fill="#D69365"/>
<path d="M33.1451 35.7812C33.1451 35.7812 32.7841 36.4697 32.7409 36.6669C32.6977 36.8642 32.3413 37.0969 32.1562 37.1098C31.9712 37.1227 31.4291 37.1568 31.3904 37.1098C31.3518 37.0627 31.1493 36.9635 31.2357 36.6753C31.3215 36.3872 31.7817 35.9398 31.8765 35.8966C31.9712 35.8534 32.7667 35.5827 33.1109 35.6297C33.1109 35.631 33.2334 35.6104 33.1451 35.7812Z" fill="#F9F5F2"/>
<path d="M38.4245 47.7132C37.972 46.0352 37.8882 44.6222 37.8882 44.6222C37.8856 44.5945 37.8818 44.5668 37.8792 44.5384C37.8553 44.2915 37.8405 44.033 37.845 43.7829C37.8463 43.6952 37.8489 43.6088 37.8553 43.5244C37.9314 42.475 38.2157 42.1256 38.2924 41.8303C38.3491 41.6131 38.4291 41.4842 38.3356 41.2515C38.3021 41.1689 38.2473 41.0735 38.1615 40.9562C38.1403 40.9272 38.1183 40.8969 38.0945 40.866C38.0262 40.7744 37.9482 40.6726 37.8599 40.5649C37.8592 40.5636 37.8586 40.563 37.8579 40.5624C37.5105 40.1363 37.0057 39.6122 36.314 39.1964C35.5411 38.7323 35.623 38.6324 35.6726 38.6117C35.6649 38.6137 35.6552 38.6162 35.643 38.6195C35.6249 38.4287 35.4528 37.5275 35.4206 37.3599C35.449 37.5417 35.6062 38.6008 35.3548 38.673C34.8701 38.7419 33.8696 38.8 32.3689 38.4776C32.3689 38.4776 32.2091 38.4628 31.9983 38.3855C31.9983 38.3855 33.7852 38.7929 35.213 37.6229C35.213 37.6229 35.351 37.6145 35.213 36.8661C35.213 36.8661 35.6855 37.3309 35.6688 37.7608C35.6514 38.1908 35.6778 38.8193 36.2709 38.974C36.6157 39.0643 36.7569 39.0546 36.8723 39.1068C36.88 39.1126 36.9309 39.1493 37.0089 39.2086C37.3048 39.4298 37.9914 39.9461 38.2202 40.1659C38.5219 40.4554 38.8049 40.8144 38.8738 41.0723C38.9428 41.3301 38.9428 41.8639 38.3923 43.0506C38.1357 43.6037 38.1422 45.9043 38.4245 47.7132Z" fill="#E8AF80"/>
<path opacity="0.3" d="M37.111 14.312C38.1766 14.312 39.0404 15.1758 39.0404 16.2414V18.6226L38.4976 18.9559L25.6992 26.8209L25.1642 27.1503V16.213C25.1642 15.1629 26.0151 14.312 27.0652 14.312H37.111Z" fill="#FAFAFA"/>
<path d="M41.8011 58.8084H41.2886C41.025 58.3185 40.8283 57.8783 40.6524 57.5611C40.5853 57.4412 40.5279 57.3393 40.4822 57.2588C40.5041 57.251 40.6588 57.1969 40.9205 57.1053C40.9411 57.146 40.9972 57.2536 41.0791 57.4115C41.2403 57.7235 41.5033 58.2328 41.8011 58.8084Z" fill="#BDBDBD"/>
<path d="M46.868 58.8084H41.8012C41.5034 58.2328 41.2404 57.7235 41.0792 57.4115C40.9974 57.2536 40.9413 57.1459 40.9207 57.1053C41.0038 57.0763 41.0973 57.0434 41.2011 57.0067C41.3358 56.9596 41.4879 56.9068 41.6549 56.8481C42.3466 56.6044 43.2916 56.2718 44.352 55.8979C44.3591 55.8947 44.3668 55.8921 44.3739 55.8896C44.6524 55.7909 44.9392 55.6897 45.2313 55.5859C45.2783 55.6775 45.3305 55.78 45.3885 55.8928C45.745 56.5916 46.2955 57.6707 46.868 58.8084Z" fill="#A8A8A8"/>
<path d="M52.7487 58.8084H46.8678C46.2954 57.6707 45.7448 56.5916 45.3884 55.8928C45.3303 55.78 45.2781 55.6775 45.2311 55.586C45.4509 55.508 45.6739 55.4293 45.8996 55.3494C46.8942 54.9961 47.9275 54.6281 48.9054 54.2767C48.9125 54.2748 48.919 54.2722 48.9261 54.2696C49.0795 54.2149 49.231 54.1601 49.3812 54.1059C49.5913 54.0305 49.7976 53.9557 49.9994 53.8835C50.0077 53.8803 50.0155 53.8777 50.0239 53.8745C50.1128 53.8423 50.2011 53.81 50.2882 53.7784C50.3352 53.8822 50.3829 53.986 50.4306 54.0898C51.0411 55.4132 51.7231 56.7656 52.4573 58.227C52.4638 58.2399 52.4702 58.2534 52.4766 58.2657C52.5663 58.4449 52.6571 58.626 52.7487 58.8084Z" fill="#BDBDBD"/>
<path d="M53.4837 58.8084H52.7489C52.6573 58.626 52.5664 58.4448 52.4768 58.2656C52.4704 58.2534 52.4639 58.2398 52.4575 58.2269C51.7233 56.7656 51.0413 55.4132 50.4308 54.0898C50.3831 53.986 50.3354 53.8822 50.2883 53.7784C50.5004 53.7017 50.7067 53.6269 50.9059 53.5541C50.9549 53.6572 51.0026 53.761 51.0509 53.8648C51.7735 55.4261 52.5954 57.0312 53.4837 58.8084Z" fill="#D1D1D1"/>
<path d="M52.9511 58.8084C52.9253 58.7575 52.8995 58.7066 52.8744 58.655C52.9002 58.706 52.9253 58.7569 52.9511 58.8084Z" fill="#CECECE"/>
<path d="M50.906 53.5541C50.7068 53.6269 50.5005 53.7017 50.2884 53.7784C50.2014 53.81 50.1131 53.8422 50.0241 53.8745C50.0054 53.8326 49.9957 53.8106 49.9957 53.8106C49.9912 53.8003 49.9861 53.7894 49.9816 53.7784C50.2613 53.7249 50.8686 53.5637 50.906 53.5541Z" fill="#A8A8A8"/>
</g>
</svg>
