<svg width="18" height="20" viewBox="0 0 18 20" fill="none" xmlns="http://www.w3.org/2000/svg">
<path d="M5.35 13.39C5.54 13.58 5.84 13.59 6.04 13.41C6.05 13.4 6.05 13.4 6.06 13.39L8.53 10.93L11 13.39C11.19 13.58 11.49 13.59 11.69 13.41C11.7 13.4 11.7 13.4 11.71 13.39C11.9 13.21 11.91 12.9 11.73 12.71C11.72 12.7 11.72 12.7 11.71 12.69L9.24 10.23L11.71 7.77C11.9 7.59 11.91 7.28 11.73 7.09C11.72 7.08 11.72 7.08 11.71 7.07C11.52 6.88 11.21 6.87 11.02 7.06L11.01 7.07L8.52 9.53L6.05 7.07C5.86 6.88 5.55 6.87 5.36 7.06L5.35 7.07C5.16 7.25 5.15 7.56 5.33 7.75C5.34 7.76 5.34 7.76 5.35 7.77L7.82 10.23L5.35 12.69C5.16 12.87 5.15 13.18 5.33 13.37C5.33 13.38 5.34 13.38 5.35 13.39ZM16.55 1.3H9.03V0.5C9.03 0.23 8.8 0 8.53 0C8.25 0 8.03 0.23 8.03 0.5V1.3H0.5C0.22 1.3 0 1.53 0 1.8C0 2.07 0.22 2.3 0.5 2.3H16.5C16.76 2.31 16.99 2.11 17 1.85C17 1.83 17 1.82 17 1.8C17.02 1.54 16.83 1.32 16.57 1.3C16.56 1.31 16.55 1.3 16.55 1.3ZM15.69 4.01V16.9C15.68 18.06 14.74 19 13.57 19.01H3.48C2.32 19.01 1.37 18.07 1.36 16.9V4.02C1.36 3.74 1.59 3.52 1.86 3.52C2.14 3.52 2.36 3.75 2.36 4.02V16.9C2.37 17.51 2.86 18 3.47 18H13.56C14.17 18 14.66 17.51 14.67 16.9V4.02C14.66 3.76 14.86 3.53 15.12 3.52C15.14 3.52 15.15 3.52 15.17 3.52C15.46 3.51 15.68 3.73 15.69 4.01Z" fill="#FF0000"/>
</svg>
