<svg width="14" height="14" viewBox="0 0 14 14" fill="none" xmlns="http://www.w3.org/2000/svg">
<path fill-rule="evenodd" clip-rule="evenodd" d="M1.1335 7.06683C1.1335 3.78994 3.78994 1.1335 7.06683 1.1335C10.3437 1.1335 13.0002 3.78994 13.0002 7.06683C13.0002 10.3437 10.3437 13.0002 7.06683 13.0002C3.78994 13.0002 1.1335 10.3437 1.1335 7.06683ZM7.06683 0.333496C3.34811 0.333496 0.333496 3.34811 0.333496 7.06683C0.333496 10.7855 3.34811 13.8002 7.06683 13.8002C10.7855 13.8002 13.8002 10.7855 13.8002 7.06683C13.8002 3.34811 10.7855 0.333496 7.06683 0.333496ZM7.05217 5.3525C6.71137 5.3525 6.53857 5.19645 6.53857 4.8887C6.53857 4.58293 6.71137 4.4279 7.05217 4.4279C7.39257 4.4279 7.56517 4.58293 7.56517 4.8887C7.56517 5.0348 7.52197 5.14967 7.43677 5.2301C7.35197 5.31132 7.22257 5.3525 7.05217 5.3525ZM7.52214 9.23986H7.52147L6.57894 9.23986L6.57894 5.78206L7.52214 5.78206L7.52214 9.2392V9.23986Z" fill="#FF0000"/>
</svg>
