<svg width="15" height="10" viewBox="0 0 15 10" fill="none" xmlns="http://www.w3.org/2000/svg">
<path d="M1.57229 4.2918L12.2664 4.2918L9.71462 1.5497C9.49112 1.30963 9.49112 0.920242 9.71462 0.680171C9.93819 0.439943 10.3006 0.439943 10.5238 0.680171L14.0525 4.4719C14.2761 4.71197 14.2761 5.10143 14.0525 5.34142L10.5238 9.1333C10.4121 9.2535 10.2657 9.31348 10.1192 9.31348C9.97285 9.31348 9.8264 9.2535 9.71462 9.1333C9.49112 8.89323 9.49112 8.50385 9.71462 8.26386L12.2664 5.52159L1.57229 5.52159C1.25625 5.52159 1 5.24625 1 4.90666C1 4.56707 1.25625 4.2918 1.57229 4.2918Z" fill="#09A8DD" stroke="#09A8DD"/>
</svg>
