<svg width="16" height="16" viewBox="0 0 16 16" fill="none" xmlns="http://www.w3.org/2000/svg">
<path d="M10.8736 15.3599C9.85369 15.1088 8.8763 14.7106 7.97247 14.1773C6.55025 13.391 5.261 12.3866 4.15265 11.2006C2.80332 9.74258 1.68147 8.13608 0.973396 6.26768C0.699346 5.59538 0.542071 4.88191 0.506971 4.15696C0.453646 3.44011 0.708121 2.73473 1.20695 2.21498C1.62882 1.78433 2.0372 1.33883 2.49147 0.946655C3.19347 0.34658 3.95757 0.34658 4.63527 0.97433C5.35077 1.64258 6.04265 2.34458 6.7082 3.05873C7.21445 3.60211 7.21445 4.44181 6.7082 4.98518C6.35382 5.38546 5.96232 5.74928 5.5877 6.13133C5.55395 6.16373 5.5175 6.19141 5.4554 6.24743C6.45372 8.04631 7.94547 9.52591 9.75582 10.5148L10.6488 9.61636C10.8682 9.35851 11.1429 9.15331 11.4528 9.01628C11.9509 8.80096 12.5301 8.90355 12.9229 9.27616C13.6722 9.98558 14.4025 10.7153 15.114 11.4652C15.6141 11.9978 15.6303 12.8192 15.1524 13.3714C14.7022 13.8992 14.2034 14.3994 13.6985 14.8834C13.3394 15.2128 12.8817 15.4153 12.3957 15.4619C12.3613 15.47 12.3269 15.4801 12.2931 15.4916L11.7005 15.4997C11.4251 15.4538 11.1477 15.418 10.8736 15.3599Z" fill="black"/>
</svg>
