<svg width="40" height="40" viewBox="0 0 40 40" fill="none" xmlns="http://www.w3.org/2000/svg">
<path d="M20 0C31.0457 0 40 8.9543 40 20C40 31.0457 31.0457 40 20 40C8.9543 40 0 31.0457 0 20C0 8.9543 8.9543 0 20 0Z" fill="#00AAE4"/>
<path fill-rule="evenodd" clip-rule="evenodd" d="M20.0001 29C18.8413 29 18.0003 28.159 18.0003 27.0002H21.9999C21.9999 28.1594 21.1584 29 20.0001 29ZM26.0004 26.0003H13.9998C12.8971 26.0003 12 25.1028 12 23.9996C12 22.8969 12.8971 21.9998 13.9998 21.9998V19.0001C13.9998 17.6523 14.539 16.2824 15.5182 15.1427C16.4531 14.0545 17.7222 13.2735 19.0002 12.9998V11.9999C19.0002 11.3364 19.3366 11 20.0001 11C20.6636 11 21 11.3364 21 11.9999V12.9998C22.2781 13.2735 23.5475 14.0548 24.482 15.1424C25.4612 16.2819 26.0004 17.652 26.0004 19.0001V21.9998C27.1026 21.9998 28.0002 22.8974 28.0002 23.9996C28.0002 25.1028 27.1031 26.0003 26.0004 26.0003ZM13.9998 23.5001C13.7244 23.5001 13.5003 23.7242 13.5003 23.9996C13.5003 24.2755 13.7244 24.5 13.9998 24.5H26.0004C26.2758 24.5 26.4999 24.2755 26.4999 23.9996C26.4999 23.7242 26.2758 23.5001 26.0004 23.5001H24.5001V19.0001C24.5001 16.5188 22.4814 14.5001 20.0001 14.5001C17.5188 14.5001 15.5001 16.5188 15.5001 19.0001V23.5001H13.9998Z" fill="white"/>
</svg>
