<svg width="72" height="46" viewBox="0 0 72 46" fill="none" xmlns="http://www.w3.org/2000/svg">
<g opacity="0.5">
<path d="M72 0H0V46H72V0Z" fill="#A9A9AD"/>
<path d="M5.14502 4.93066V41.0694H66.855V4.93066H5.14502ZM65.13 39.4163H6.87002V6.58379H65.145V39.4163H65.13Z" fill="#54545A"/>
<path d="M36 32.8612C41.683 32.8612 46.29 28.4461 46.29 22.9999C46.29 17.5537 41.683 13.1387 36 13.1387C30.317 13.1387 25.71 17.5537 25.71 22.9999C25.71 28.4461 30.317 32.8612 36 32.8612Z" fill="#54545A"/>
<path d="M14.8499 19.823C13.0199 19.823 11.5349 21.2461 11.5349 22.9999C11.5349 24.7536 13.0199 26.1767 14.8499 26.1767C16.6799 26.1767 18.1649 24.7536 18.1649 22.9999C18.1649 21.2461 16.6799 19.823 14.8499 19.823Z" fill="#54545A"/>
<path d="M57.15 19.823C55.32 19.823 53.835 21.2461 53.835 22.9999C53.835 24.7536 55.32 26.1767 57.15 26.1767C58.98 26.1767 60.465 24.7536 60.465 22.9999C60.465 21.2461 58.98 19.823 57.15 19.823Z" fill="#54545A"/>
</g>
</svg>
