<svg width="24" height="24" viewBox="0 0 24 24" fill="none" xmlns="http://www.w3.org/2000/svg">
<path d="M17.25 9.85567C17.25 9.76632 17.2149 9.68729 17.1448 9.61856L16.6187 9.10309C16.5486 9.03436 16.4679 9 16.3768 9C16.2856 9 16.2049 9.03436 16.1348 9.10309L12 13.1546L7.86523 9.10309C7.79509 9.03436 7.71443 9 7.62325 9C7.53206 9 7.4514 9.03436 7.38126 9.10309L6.85521 9.61856C6.78507 9.68729 6.75 9.76632 6.75 9.85567C6.75 9.94502 6.78507 10.0241 6.85521 10.0928L11.758 14.8969C11.8282 14.9656 11.9088 15 12 15C12.0912 15 12.1718 14.9656 12.242 14.8969L17.1448 10.0928C17.2149 10.0241 17.25 9.94502 17.25 9.85567Z" fill="#09A8DD"/>
</svg>
