<svg width="34" height="24" viewBox="0 0 34 24" fill="none" xmlns="http://www.w3.org/2000/svg">
<path fill-rule="evenodd" clip-rule="evenodd" d="M18.7197 15.9697C18.4268 16.2626 18.4268 16.7374 18.7197 17.0303C19.0126 17.3232 19.4874 17.3232 19.7803 17.0303L24.2803 12.5303C24.5732 12.2374 24.5732 11.7626 24.2803 11.4697L19.7803 6.96967C19.4874 6.67678 19.0126 6.67678 18.7197 6.96967C18.4268 7.26256 18.4268 7.73744 18.7197 8.03033L21.9393 11.25L2 11.25C1.58579 11.25 1.25 11.5858 1.25 12C1.25 12.4142 1.58579 12.75 2 12.75L21.9393 12.75L18.7197 15.9697Z" fill="#09A8DD"/>
<path d="M21.5 1C27.5751 1 32.5 5.92487 32.5 12C32.5 18.0751 27.5751 23 21.5 23C15.4249 23 10.5 18.0751 10.5 12C10.5 5.92487 15.4249 1 21.5 1Z" stroke="#09A8DD" stroke-width="2" stroke-linecap="round"/>
</svg>
