<svg width="11" height="17" viewBox="0 0 11 17" fill="none" xmlns="http://www.w3.org/2000/svg">
<mask id="path-1-inside-1" fill="white">
<path d="M2.15397 0.0413399C2.01002 0.0413399 1.88268 0.0978432 1.77195 0.210846L0.941484 1.05837C0.830755 1.17138 0.775391 1.30133 0.775391 1.44824C0.775391 1.59514 0.830755 1.7251 0.941484 1.8381L7.46898 8.49967L0.941484 15.1612C0.830755 15.2743 0.775391 15.4042 0.775391 15.5511C0.775391 15.698 0.830755 15.828 0.941484 15.941L1.77195 16.7885C1.88268 16.9015 2.01002 16.958 2.15397 16.958C2.29792 16.958 2.42526 16.9015 2.53599 16.7885L10.276 8.88954C10.3867 8.77653 10.4421 8.64658 10.4421 8.49967C10.4421 8.35277 10.3867 8.22281 10.276 8.10981L2.53599 0.210846C2.42526 0.0978432 2.29792 0.0413399 2.15397 0.0413399Z"/>
</mask>
<path d="M1.77195 0.210846L-1.79932 -3.28858L-1.79934 -3.28856L1.77195 0.210846ZM0.941484 1.05837L-2.62981 -2.44104H-2.62981L0.941484 1.05837ZM0.941484 1.8381L-2.62981 5.33751L-2.62981 5.33751L0.941484 1.8381ZM7.46898 8.49967L11.0403 11.9991L14.4692 8.49967L11.0403 5.00026L7.46898 8.49967ZM0.941484 15.1612L-2.62981 11.6618L-2.62981 11.6618L0.941484 15.1612ZM0.941484 15.941L-2.62981 19.4404L-2.62981 19.4404L0.941484 15.941ZM1.77195 16.7885L5.34325 13.2891L5.34325 13.2891L1.77195 16.7885ZM2.53599 16.7885L6.10727 20.2879L6.10728 20.2879L2.53599 16.7885ZM10.276 8.88954L6.70469 5.39011L6.70467 5.39013L10.276 8.88954ZM10.276 8.10981L6.70467 11.6092L6.70467 11.6092L10.276 8.10981ZM2.53599 0.210846L6.10728 -3.28856L6.10726 -3.28859L2.53599 0.210846ZM2.15397 -4.95866C0.526273 -4.95866 -0.850919 -4.25646 -1.79932 -3.28858L5.34323 3.71027C5.01597 4.04425 4.56522 4.39363 3.97842 4.65401C3.38214 4.91859 2.75674 5.04134 2.15397 5.04134L2.15397 -4.95866ZM-1.79934 -3.28856L-2.62981 -2.44104L4.51278 4.55779L5.34325 3.71026L-1.79934 -3.28856ZM-2.62981 -2.44104C-3.57868 -1.47267 -4.22461 -0.114038 -4.22461 1.44824H5.77539C5.77539 2.02081 5.66373 2.62085 5.41686 3.2003C5.17296 3.77282 4.84109 4.22272 4.51278 4.55778L-2.62981 -2.44104ZM-4.22461 1.44824C-4.22461 3.01052 -3.57868 4.36915 -2.62981 5.33751L4.51278 -1.66131C4.84109 -1.32625 5.17295 -0.876348 5.41686 -0.303831C5.66373 0.275623 5.77539 0.875671 5.77539 1.44824H-4.22461ZM-2.62981 5.33751L3.89768 11.9991L11.0403 5.00026L4.51278 -1.66131L-2.62981 5.33751ZM3.89768 5.00026L-2.62981 11.6618L4.51278 18.6607L11.0403 11.9991L3.89768 5.00026ZM-2.62981 11.6618C-3.57868 12.6302 -4.22461 13.9888 -4.22461 15.5511H5.77539C5.77539 16.1237 5.66373 16.7237 5.41686 17.3032C5.17295 17.8757 4.84109 18.3256 4.51278 18.6607L-2.62981 11.6618ZM-4.22461 15.5511C-4.22461 17.1134 -3.57868 18.472 -2.62981 19.4404L4.51278 12.4416C4.84109 12.7766 5.17295 13.2265 5.41686 13.799C5.66373 14.3785 5.77539 14.9785 5.77539 15.5511H-4.22461ZM-2.62981 19.4404L-1.79934 20.2879L5.34325 13.2891L4.51278 12.4416L-2.62981 19.4404ZM-1.79934 20.2879C-0.850906 21.2558 0.526301 21.958 2.15397 21.958V11.958C2.75673 11.958 3.38212 12.0808 3.97841 12.3453C4.56522 12.6057 5.01597 12.9551 5.34325 13.2891L-1.79934 20.2879ZM2.15397 21.958C3.78164 21.958 5.15885 21.2558 6.10727 20.2879L-1.0353 13.2891C-0.708029 12.9551 -0.257279 12.6057 0.32953 12.3453C0.925817 12.0808 1.55121 11.958 2.15397 11.958V21.958ZM6.10728 20.2879L13.8473 12.3889L6.70467 5.39013L-1.03531 13.2891L6.10728 20.2879ZM13.8472 12.389C14.7961 11.4206 15.4421 10.062 15.4421 8.49967L5.44206 8.49967C5.44206 7.92709 5.55373 7.32704 5.80059 6.74759C6.0445 6.17507 6.37637 5.72517 6.70469 5.39011L13.8472 12.389ZM15.4421 8.49967C15.4421 6.93737 14.7961 5.57874 13.8473 4.6104L6.70467 11.6092C6.37636 11.2742 6.0445 10.8243 5.80059 10.2518C5.55373 9.67231 5.44206 9.07226 5.44206 8.49967L15.4421 8.49967ZM13.8473 4.6104L6.10728 -3.28856L-1.03531 3.71026L6.70467 11.6092L13.8473 4.6104ZM6.10726 -3.28859C5.15886 -4.25645 3.78167 -4.95866 2.15397 -4.95866L2.15397 5.04134C1.55119 5.04134 0.925797 4.91859 0.329517 4.65401C-0.257283 4.39363 -0.708023 4.04426 -1.03528 3.71028L6.10726 -3.28859Z" fill="#0BA6D9" mask="url(#path-1-inside-1)"/>
</svg>
