<svg width="23" height="23" viewBox="0 0 23 23" fill="none" xmlns="http://www.w3.org/2000/svg">
<path fill-rule="evenodd" clip-rule="evenodd" d="M13.5692 22.6499C13.19 22.2707 13.19 21.6551 13.5692 21.2759L15.7964 19.0487H7.77923C3.66683 19.0487 0.332031 15.7139 0.332031 11.6003C0.332031 11.0639 0.766431 10.6295 1.30403 10.6295C1.84043 10.6295 2.27483 11.0639 2.27483 11.6003C2.27483 14.6411 4.73963 17.1059 7.77923 17.1059H15.7964L13.5692 14.8787C13.2236 14.5331 13.1924 13.9931 13.4744 13.6139L13.5692 13.5047C13.9484 13.1255 14.5628 13.1255 14.9432 13.5047L18.8288 17.3903C19.208 17.7695 19.208 18.3851 18.8288 18.7643L14.9432 22.6499C14.753 22.8395 14.5043 22.9343 14.2558 22.9343C14.0072 22.9343 13.7588 22.8395 13.5692 22.6499ZM21.056 11.6003C21.056 8.56076 18.5912 6.09596 15.5516 6.09596H7.53323L9.76163 8.32316C10.1072 8.66875 10.1384 9.20755 9.85643 9.58795L9.76163 9.69715C9.38243 10.0764 8.76683 10.0764 8.38763 9.69715L4.50203 5.81156C4.12283 5.43236 4.12283 4.81677 4.50203 4.43757L8.38763 0.551977C8.76683 0.172778 9.38243 0.172778 9.76163 0.551977C10.1408 0.931176 10.1408 1.54677 9.76163 1.92597L7.53323 4.15317H15.5516C19.664 4.15317 22.9988 7.48796 22.9988 11.6003C22.9988 12.1379 22.5632 12.5723 22.0268 12.5723C21.4904 12.5723 21.056 12.1379 21.056 11.6003Z" fill="#979797"/>
</svg>
